<?xml version="1.0" encoding="utf-8"?>
<!-- Generator: Adobe Illustrator 22.1.0, SVG Export Plug-In . SVG Version: 6.00 Build 0)  -->
<svg version="1.1" id="图层_1" xmlns="http://www.w3.org/2000/svg" xmlns:xlink="http://www.w3.org/1999/xlink" x="0px" y="0px"
	 viewBox="0 0 400 400" style="enable-background:new 0 0 400 400;" xml:space="preserve">
<g>
	<path d="M123.9,167.9v189h-65v-189H123.9 M129.9,141.9h-77c-11,0-20,9-20,20v201c0,11,9,20,20,20h77c11,0,20-9,20-20v-201
		C149.9,150.9,140.9,141.9,129.9,141.9L129.9,141.9z"/>
</g>
<g>
	<path d="M340.5,219.3v137.6h-65V219.3H340.5 M346.5,193.3h-77c-11,0-20,9-20,20v149.6c0,11,9,20,20,20h77c11,0,20-9,20-20V213.3
		C366.5,202.3,357.5,193.3,346.5,193.3L346.5,193.3z"/>
</g>
<g>
	<path d="M249.8,45v311.9H149.6V45H249.8 M255.8,19H143.6c-11,0-20,9-20,20v323.9c0,11,9,20,20,20h112.1c11,0,20-9,20-20V39
		C275.8,28,266.8,19,255.8,19L255.8,19z"/>
</g>
<path d="M382,382.4H18c-7.1,0-13-5.8-13-13v0c0-7.1,5.8-13,13-13h364c7.1,0,13,5.9,13,13v0C395,376.5,389.1,382.4,382,382.4z"/>
</svg>
