<?xml version="1.0" encoding="utf-8"?>
<!-- Generator: Adobe Illustrator 22.0.0, SVG Export Plug-In . SVG Version: 6.00 Build 0)  -->
<svg version="1.1" id="图层_1" xmlns="http://www.w3.org/2000/svg" xmlns:xlink="http://www.w3.org/1999/xlink" x="0px" y="0px"
	 viewBox="0 0 1024 1024" style="enable-background:new 0 0 1024 1024;" xml:space="preserve">
<style type="text/css">
	.st0{fill:url(#SVGID_1_);}
	.st1{display:none;}
	.st2{display:inline;opacity:0.41;fill:#FFFFFF;enable-background:new    ;}
	.st3{display:inline;}
	.st4{fill:#FFFFFF;}
	.st5{opacity:0.41;fill:#FFFFFF;enable-background:new    ;}
</style>
<linearGradient id="SVGID_1_" gradientUnits="userSpaceOnUse" x1="900.4094" y1="101.4031" x2="123.6031" y2="-675.4031" gradientTransform="matrix(1 0 0 1 0 799)">
	<stop  offset="2.012780e-07" style="stop-color:#FF7955"/>
	<stop  offset="1" style="stop-color:#FFAAB1"/>
</linearGradient>
<path class="st0" d="M665.7,998H358.3C175.5,998,26,848.5,26,665.7V358.3C26,175.5,175.5,26,358.3,26h307.5
	C848.5,26,998,175.5,998,358.3v307.5C998,848.5,848.5,998,665.7,998z"/>
<g class="st1">
	<circle class="st2" cx="508" cy="512.8" r="221.9"/>
	<g class="st3">
		<g>
			<g>
				<g>
					<polygon class="st4" points="520.1,487.8 491,487.8 428,348.8 457.1,348.8 					"/>
					<polygon class="st4" points="501.5,487.8 530.7,487.8 593.7,348.8 564.5,348.8 					"/>
					<rect x="390.1" y="460.4" class="st4" width="241.8" height="28.5"/>
					<rect x="390.1" y="539" class="st4" width="241.8" height="28.5"/>
					<rect x="496.7" y="466.3" class="st4" width="28.5" height="207.9"/>
				</g>
				<rect x="703.4" y="663.2" class="st4" width="15.4" height="147.9"/>
				<rect x="637.2" y="729.5" class="st4" width="147.9" height="15.4"/>
				<path class="st4" d="M506.5,810.2c-40.3,0-79.3-7.9-116-23.4c-35.5-15-67.4-36.5-94.7-63.9c-27.3-27.3-48.9-59.3-63.9-94.7
					c-15.6-36.8-23.4-75.8-23.4-116s7.9-79.3,23.4-116c15-35.5,36.5-67.4,63.9-94.8c27.3-27.4,59.3-48.9,94.7-63.9
					c36.7-15.6,75.8-23.5,116-23.5s79.3,7.9,116,23.4c35.5,15,67.4,36.5,94.7,63.9s48.9,59.3,63.9,94.7
					c15.6,36.8,23.4,75.8,23.4,116c0,38.9-7.4,76.6-21.9,112.2l-16-6.5c13.6-33.5,20.6-69.1,20.6-105.7
					c0-154.8-126-280.8-280.8-280.8S225.5,357.1,225.5,512c0.1,154.9,126.2,280.9,281,280.9c29.9,0,59.5-4.7,88-14l5.4,16.4
					C569.7,805.2,538.3,810.2,506.5,810.2z"/>
			</g>
		</g>
	</g>
</g>
<g>
	<path class="st5" d="M737.8,723.6H285.2c-6.3,0-11.5-5.2-11.5-11.5V514.4l223.9-207.6c4.5-4.5,15.6-6.4,22,0l229.6,207.6V712
		C749.2,718.4,744.1,723.6,737.8,723.6z"/>
	<g id="次卡_1_">
		<g>
			<path class="st4" d="M765.3,782.4H258.5c-18.3,0-33.2-12.9-33.2-28.8V532.3c0-4.6,3.7-8.3,8.3-8.3h0c4.6,0,8.3,3.7,8.3,8.3v221.3
				c0,6.5,7.6,12.2,16.6,12.2h506.8c8.9,0,16.6-5.5,16.6-12.2V532.3c0-4.6,3.7-8.3,8.3-8.3h0.1c4.6,0,8.3,3.7,8.3,8.3v221.3
				C798.5,769.5,783.6,782.4,765.3,782.4z"/>
		</g>
	</g>
	<g id="次卡_2_">
		<g>
			<path class="st4" d="M777.8,472.8L524.4,250.7c-0.2-0.2-0.3-0.3-0.5-0.5c-7.1-7.2-18.5-7.2-25.6-0.2c-0.1,0.1-0.3,0.3-0.4,0.4
				L245,472.1c-3.5,3.1-8.8,2.7-11.8-0.8l0,0c-3-3.5-2.7-8.8,0.8-11.8L486.7,238c13.5-13.2,35.2-13.2,48.7,0.1l253.5,222.1
				c3.5,3,3.8,8.3,0.8,11.8v0C786.6,475.5,781.3,475.9,777.8,472.8z"/>
		</g>
	</g>
	<path class="st4" d="M511.5,694.8L511.5,694.8c-2.7,0-5.2-1.4-6.5-3.8c-0.2-0.4-23.5-41.2-46.5-87.8
		c-31.2-63.2-47.1-106.7-47.1-129.1c0-55.2,44.9-100.1,100.1-100.1c26.7,0,51.9,10.4,70.7,29.3s29.3,44,29.3,70.7
		c0,22.4-15.9,65.7-47.1,129.1c-23,46.5-46.3,87.4-46.5,87.8C516.6,693.4,514.1,694.8,511.5,694.8z M511.5,389.1
		c-47,0-85.2,38.2-85.2,85.2c0,13.8,7.9,46.2,45.5,122.5c15.5,31.4,31.1,60.2,39.6,75.5c8.5-15.3,24.1-44.1,39.6-75.5
		c37.6-76.2,45.5-108.6,45.5-122.4C596.6,427.4,558.4,389.1,511.5,389.1z"/>
</g>
</svg>
