<?xml version="1.0" encoding="utf-8"?>
<!-- Generator: Adobe Illustrator 22.0.0, SVG Export Plug-In . SVG Version: 6.00 Build 0)  -->
<svg version="1.1" id="图层_1" xmlns="http://www.w3.org/2000/svg" xmlns:xlink="http://www.w3.org/1999/xlink" x="0px" y="0px"
	 viewBox="0 0 1024 1024" style="enable-background:new 0 0 1024 1024;" xml:space="preserve">
<style type="text/css">
	.st0{fill:url(#SVGID_1_);}
	.st1{display:none;}
	.st2{display:inline;opacity:0.41;fill:#FFFFFF;enable-background:new    ;}
	.st3{display:inline;}
	.st4{fill:#FFFFFF;}
	.st5{opacity:0.41;fill:#FFFFFF;}
	.st6{fill:none;stroke:#FFFFFF;stroke-width:17;stroke-miterlimit:10;}
</style>
<linearGradient id="SVGID_1_" gradientUnits="userSpaceOnUse" x1="900.4094" y1="-722.5969" x2="123.6031" y2="-1499.4031" gradientTransform="matrix(1 0 0 1 0 1623)">
	<stop  offset="2.012780e-07" style="stop-color:#539DFE"/>
	<stop  offset="1" style="stop-color:#49DDFA"/>
</linearGradient>
<path class="st0" d="M665.7,998H358.3C175.5,998,26,848.5,26,665.7V358.3C26,175.5,175.5,26,358.3,26h307.5
	C848.5,26,998,175.5,998,358.3v307.5C998,848.5,848.5,998,665.7,998z"/>
<g class="st1">
	<circle class="st2" cx="508" cy="512.8" r="221.9"/>
	<g class="st3">
		<g>
			<g>
				<g>
					<polygon class="st4" points="520.1,487.8 491,487.8 428,348.8 457.1,348.8 					"/>
					<polygon class="st4" points="501.5,487.8 530.7,487.8 593.7,348.8 564.5,348.8 					"/>
					<rect x="390.1" y="460.4" class="st4" width="241.8" height="28.5"/>
					<rect x="390.1" y="539" class="st4" width="241.8" height="28.5"/>
					<rect x="496.7" y="466.3" class="st4" width="28.5" height="207.9"/>
				</g>
				<rect x="703.4" y="663.2" class="st4" width="15.4" height="147.9"/>
				<rect x="637.2" y="729.5" class="st4" width="147.9" height="15.4"/>
				<path class="st4" d="M506.5,810.2c-40.3,0-79.3-7.9-116-23.4c-35.5-15-67.4-36.5-94.7-63.9c-27.3-27.3-48.9-59.3-63.9-94.7
					c-15.6-36.8-23.4-75.8-23.4-116s7.9-79.3,23.4-116c15-35.5,36.5-67.4,63.9-94.8c27.3-27.4,59.3-48.9,94.7-63.9
					c36.7-15.6,75.8-23.5,116-23.5s79.3,7.9,116,23.4c35.5,15,67.4,36.5,94.7,63.9s48.9,59.3,63.9,94.7
					c15.6,36.8,23.4,75.8,23.4,116c0,38.9-7.4,76.6-21.9,112.2l-16-6.5c13.6-33.5,20.6-69.1,20.6-105.7
					c0-154.8-126-280.8-280.8-280.8S225.5,357.1,225.5,512c0.1,154.9,126.2,280.9,281,280.9c29.9,0,59.5-4.7,88-14l5.4,16.4
					C569.7,805.2,538.3,810.2,506.5,810.2z"/>
			</g>
		</g>
	</g>
</g>
<g>
	<g>
		<path class="st4" d="M738.2,227.8c5.1,0,9.4,4.3,9.4,9.4V784c0,5.1-4.3,9.4-9.4,9.4H276.3c-5.1,0-9.4-4.3-9.4-9.4V237.2
			c0-5.1,4.3-9.4,9.4-9.4H738.2 M738.2,210.3H276.3c-14.8,0-26.8,12.1-26.8,26.8V784c0,14.8,12.1,26.8,26.8,26.8h461.8
			c14.8,0,26.8-12.1,26.8-26.8V237.2C765,222.4,752.9,210.3,738.2,210.3L738.2,210.3z"/>
	</g>
</g>
<path class="st5" d="M526.2,621.7l-90.5-95.2c-5.4-5.7-14.5-5.7-20,0l-90.5,95.2c-8.6,9-23.8,3-23.8-9.5V235.8
	c0-7.6,6.2-13.8,13.8-13.8h220.9c7.6,0,13.8,6.2,13.8,13.8v376.4C550,624.7,534.8,630.7,526.2,621.7z"/>
<path class="st6" d="M508.9,537.9L431.9,457c-3.4-3.5-9-3.5-12.4,0l-76.9,80.9c-5.3,5.6-14.7,1.8-14.7-5.9V227.5
	c0-4.7,3.8-8.6,8.6-8.6H515c4.7,0,8.6,3.8,8.6,8.6V532C523.6,539.7,514.2,543.5,508.9,537.9z"/>
</svg>
