<?xml version="1.0" encoding="utf-8"?>
<!-- Generator: Adobe Illustrator 22.0.0, SVG Export Plug-In . SVG Version: 6.00 Build 0)  -->
<svg version="1.1" id="图层_1" xmlns="http://www.w3.org/2000/svg" xmlns:xlink="http://www.w3.org/1999/xlink" x="0px" y="0px"
	 viewBox="0 0 258 258" style="enable-background:new 0 0 258 258;" xml:space="preserve">
<style type="text/css">
	.st0{fill:#AAAAAA;}
</style>
<path class="st0" d="M63.9,250.5L63.9,250.5c-5.8-5.8-5.8-15.2,0-21L174.4,119c5.8-5.8,15.2-5.8,21,0l0,0c5.8,5.8,5.8,15.2,0,21
	L84.9,250.5C79.1,256.3,69.7,256.3,63.9,250.5z"/>
<path class="st0" d="M63.6,8.2L63.6,8.2c5.8-5.8,15.2-5.8,21,0l110.6,110.5c5.8,5.8,5.8,15.2,0,21l0,0c-5.8,5.8-15.2,5.8-21,0
	L63.6,29.3C57.8,23.5,57.8,14,63.6,8.2z"/>
</svg>
