<svg id="图层_1" data-name="图层 1" xmlns="http://www.w3.org/2000/svg" viewBox="0 0 500 500"><defs><style>.cls-1{fill:#000;}</style></defs><title>相机</title><path class="cls-1" d="M256.11,188.89A100.37,100.37,0,1,0,356.48,289.26,100.48,100.48,0,0,0,256.11,188.89Zm0,168.13a67.76,67.76,0,1,1,67.76-67.76A67.83,67.83,0,0,1,256.11,357Zm165.58-219.8H356.48c0-28-21.94-50-48.91-50H226.05c-27,0-48.91,22-48.91,50h-51v-16.6a16,16,0,1,0-32,0v16.6H79.32a48.44,48.44,0,0,0-48.58,48.62V397.78c0,27,21.61,45.73,48.58,45.73H421.69c27,0,46.76-18.76,46.76-45.73V185.84C468.45,158.87,448.66,137.22,421.69,137.22Zm14.78,260.56c0,9-5.78,13.75-14.78,13.75H79.32c-9,0-16.6-4.75-16.6-13.75V185.84c0-9,7.62-17.15,16.6-17.15H193.45c9,0,14.18-6.45,14.18-15.46v-16.3c0-9,9.43-17.7,18.42-17.7h81.52c9,0,15.48,8.71,15.48,17.7v16.3c0,9,8.11,15.46,17.13,15.46h81.51c9,0,14.78,8.16,14.78,17.15Z"/></svg>