<?xml version="1.0" encoding="utf-8"?>
<!-- Generator: Adobe Illustrator 22.1.0, SVG Export Plug-In . SVG Version: 6.00 Build 0)  -->
<svg version="1.1" id="图层_1" xmlns="http://www.w3.org/2000/svg" xmlns:xlink="http://www.w3.org/1999/xlink" x="0px" y="0px"
	 viewBox="0 0 400 400" style="enable-background:new 0 0 400 400;" xml:space="preserve">
<style type="text/css">
	.st0{fill:#FFFFFF;}
	.st1{fill:#AAAAAA;}
</style>
<g>
	<path class="st0" d="M49.6,376c-15.4,0-28-12.6-28-28V47.2c0-15.4,12.6-28,28-28h300.8c15.4,0,28,12.6,28,28V348
		c0,15.4-12.6,28-28,28H49.6z"/>
	<path class="st1" d="M350.4,31.2c8.7,0,16,7.3,16,16V348c0,8.7-7.3,16-16,16H49.6c-8.7,0-16-7.3-16-16V47.2c0-8.7,7.3-16,16-16
		H350.4 M350.4,7.2H49.6c-22,0-40,18-40,40V348c0,22,18,40,40,40h300.8c22,0,40-18,40-40V47.2C390.4,25.2,372.4,7.2,350.4,7.2
		L350.4,7.2z"/>
</g>
</svg>
