<svg id="图层_1" data-name="图层 1" xmlns="http://www.w3.org/2000/svg" viewBox="0 0 1024 1024"><title>删除</title><rect x="55.23" y="174.25" width="915.54" height="28.67" rx="12" ry="12"/><rect x="23.87" y="594.46" width="601.55" height="28.67" rx="12" ry="12" transform="translate(933.44 284.15) rotate(90)"/><rect x="211.1" y="594.46" width="601.55" height="28.67" rx="12" ry="12" transform="translate(1120.67 96.92) rotate(90)"/><rect x="398.34" y="594.46" width="601.55" height="28.67" rx="12" ry="12" transform="translate(1307.91 -90.32) rotate(90)"/><path d="M720.43,136a14.34,14.34,0,0,1-14.34-14.34V76.44a29.81,29.81,0,0,0-29.78-29.78H348.57a29.81,29.81,0,0,0-29.78,29.78v45.23a14.34,14.34,0,0,1-28.68,0V76.44A58.53,58.53,0,0,1,348.57,18H676.31a58.53,58.53,0,0,1,58.46,58.46v45.23A14.34,14.34,0,0,1,720.43,136Z"/><path d="M820.93,1003H204.63c-32.23,0-58.46-30.2-58.46-67.33V188.58a14.34,14.34,0,0,1,28.68,0V935.69c0,20.95,13.64,38.65,29.78,38.65h616.3c16.15,0,29.79-17.7,29.79-38.65V188.58a14.34,14.34,0,0,1,28.68,0V935.69C879.4,972.82,853.17,1003,820.93,1003Z"/></svg>