<svg id="图层_1" data-name="图层 1" xmlns="http://www.w3.org/2000/svg" viewBox="0 0 258 258"><defs><style>.cls-1{fill:#d1000b;}</style></defs><title>垃圾桶红-01</title><path class="cls-1" d="M206.9,254.8H51.3a19.46,19.46,0,0,1-19.5-19.5V60.7h15V235.4a4.61,4.61,0,0,0,4.5,4.5H207a4.61,4.61,0,0,0,4.5-4.5V60.7h15V235.4A19.59,19.59,0,0,1,206.9,254.8Z"/><path class="cls-1" d="M183.3,40.8a7.55,7.55,0,0,1-7.5-7.5V19.2H82.3V33.4a7.5,7.5,0,0,1-15,0V16.2c0-6.6,5.9-12,13.1-12h97.3c7.2,0,13.1,5.4,13.1,12V33.3A7.43,7.43,0,0,1,183.3,40.8Z"/><path class="cls-1" d="M237.7,61.7H20.5A7.55,7.55,0,0,1,13,54.2h0a7.55,7.55,0,0,1,7.5-7.5H237.7a7.55,7.55,0,0,1,7.5,7.5h0A7.49,7.49,0,0,1,237.7,61.7Z"/><path class="cls-1" d="M80.5,216h0a8,8,0,0,1-8-8V94a8,8,0,0,1,8-8h0a8,8,0,0,1,8,8V208A8,8,0,0,1,80.5,216Z"/><path class="cls-1" d="M129.1,216h0a8,8,0,0,1-8-8V94a8,8,0,0,1,8-8h0a8,8,0,0,1,8,8V208A8,8,0,0,1,129.1,216Z"/><path class="cls-1" d="M177.1,216h0a8,8,0,0,1-8-8V94a8,8,0,0,1,8-8h0a8,8,0,0,1,8,8V208A8,8,0,0,1,177.1,216Z"/></svg>