<svg id="图层_1" data-name="图层 1" xmlns="http://www.w3.org/2000/svg" viewBox="0 0 1024 1024"><defs><style>.cls-1{fill:#fff;}</style></defs><title>编辑</title><path class="cls-1" d="M921.54,641.7V944.88c0,25.9-23.58,47.09-52.39,47.09H135.43C106.61,992,83,970.78,83,944.88V88.42c0-25.9,23.58-47.1,52.4-47.1H869.15c28.81,0,52.39,21.2,52.39,47.1"/><path d="M869.15,1009H135.43C97.14,1009,66,980.23,66,944.88V88.42c0-35.36,31.14-64.13,69.43-64.13H869.15c38.28,0,69.42,28.77,69.42,64.13a17,17,0,0,1-34.06,0c0-16.3-16.19-30.07-35.36-30.07H135.43c-19.18,0-35.37,13.77-35.37,30.07V944.88c0,16.29,16.19,30.06,35.37,30.06H869.15c19.17,0,35.36-13.77,35.36-30.06V641.7a17,17,0,0,1,34.06,0V944.88C938.57,980.23,907.43,1009,869.15,1009Z"/><rect x="190.25" y="847.31" width="617.41" height="68.12" rx="34.06" ry="34.06"/><rect x="190.25" y="176.99" width="442.9" height="68.12" rx="34.06" ry="34.06"/><rect x="190.25" y="512.15" width="344.88" height="68.12" rx="34.06" ry="34.06"/><path class="cls-1" d="M551,782.37s2.86-162.92,7.3-170.34L737,313.7a15.76,15.76,0,0,1,21.56-5.4L871,375.63a15.77,15.77,0,0,1,5.41,21.56L697.69,695.52C693.25,702.94,551,782.37,551,782.37Z"/><path d="M551,799.4a17,17,0,0,1-17-17.33c0-.41.73-41.32,2-82.61,2.68-87.74,4.8-91.28,7.73-96.18L722.43,305a32.8,32.8,0,0,1,44.92-11.26L879.75,361A32.78,32.78,0,0,1,891,405.94L712.3,704.27c-2.93,4.9-5,8.44-81.12,52.22-35.79,20.6-71.5,40.55-71.86,40.75A17,17,0,0,1,551,799.4Zm23.15-180.68c-2,12.72-4.17,72.76-5.53,134.23,53.53-30.22,105.41-60.5,115.68-68.24l176.8-295.14L751,323.58Zm.25-1.37Z"/><rect x="757.07" y="251.35" width="197.5" height="41.92" rx="12" ry="12" transform="translate(261.59 -401.09) rotate(30.92)"/><rect x="547.08" y="613.56" width="185.41" height="41.92" rx="12" ry="12" transform="translate(417.01 -238.58) rotate(30.92)"/></svg>