<?xml version="1.0" encoding="utf-8"?>
<!-- Generator: Adobe Illustrator 22.0.0, SVG Export Plug-In . SVG Version: 6.00 Build 0)  -->
<svg version="1.1" id="图层_1" xmlns="http://www.w3.org/2000/svg" xmlns:xlink="http://www.w3.org/1999/xlink" x="0px" y="0px"
	 viewBox="0 0 1024 1024" style="enable-background:new 0 0 1024 1024;" xml:space="preserve">
<style type="text/css">
	.st0{fill:url(#SVGID_1_);}
	.st1{display:none;}
	.st2{display:inline;}
	.st3{fill:#FFFFFF;}
	.st4{opacity:0.41;fill:#FFFFFF;enable-background:new    ;}
	.st5{fill:none;stroke:#FFFFFF;stroke-width:17;stroke-miterlimit:10;}
</style>
<linearGradient id="SVGID_1_" gradientUnits="userSpaceOnUse" x1="896.3344" y1="1494.5593" x2="119.0156" y2="2271.8782" gradientTransform="matrix(1 0 0 -1 0 2397)">
	<stop  offset="0" style="stop-color:#FFAA82"/>
	<stop  offset="1" style="stop-color:#FFC861"/>
</linearGradient>
<path class="st0" d="M661.6,1000.1h-308c-182.7,0-332.2-149.6-332.2-332.3v-308c0-182.7,149.5-332.3,332.3-332.3h308
	C844.4,27.5,994,177,994,359.8v308C993.9,850.5,844.4,1000.1,661.6,1000.1z"/>
<g id="衣柜2" class="st1">
	<g class="st2">
		<g>
			<rect x="262.5" y="221.9" class="st3" width="500.2" height="16.9"/>
			<rect x="262.5" y="730" class="st3" width="499.5" height="16.9"/>
			<rect x="278.4" y="747.2" class="st3" width="468.4" height="16.9"/>
			<polygon class="st3" points="513.3,746.8 287.2,746.8 287.2,222 513.3,222 513.3,238.9 304.1,238.9 304.1,729.9 513.3,729.9 			
				"/>
			<polygon class="st3" points="737.3,746.8 504.1,746.8 504.1,729.9 720.4,729.9 720.4,238.9 504.1,238.9 504.1,222 737.3,222 			
				"/>
			<rect x="503.3" y="234.8" class="st3" width="19.1" height="512.4"/>
			<rect x="304.1" y="735.5" class="st3" width="20.8" height="68.5"/>
			<rect x="699.3" y="735.5" class="st3" width="20.8" height="68.5"/>
			<path class="st3" d="M471,516.9L471,516.9c-4,0-7.2-3.3-7.2-7.2v-74.8c0-4,3.3-7.2,7.2-7.2l0,0c4,0,7.2,3.3,7.2,7.2v74.8
				C478.2,513.6,474.9,516.9,471,516.9z"/>
			<path class="st3" d="M554.3,516.9L554.3,516.9c-4,0-7.2-3.3-7.2-7.2v-74.8c0-4,3.3-7.2,7.2-7.2l0,0c4,0,7.2,3.3,7.2,7.2v74.8
				C561.6,513.6,558.3,516.9,554.3,516.9z"/>
		</g>
	</g>
</g>
<path class="st4" d="M550.2,573.6h-273c-21,0-38.3-17.2-38.3-38.3V346.7c0-21,17.2-38.3,38.3-38.3h273c21,0,38.3,17.2,38.3,38.3
	v188.7C588.5,556.4,571.3,573.6,550.2,573.6z"/>
<path class="st3" d="M236,696.7c-25.8,0-46.8-21-46.8-46.8V301.4c0-25.8,21-46.8,46.8-46.8h345.8c4.7,0,8.5,3.8,8.5,8.5
	s-3.8,8.5-8.5,8.5H236c-16.4,0-29.8,13.4-29.8,29.8V650c0,16.4,13.4,29.8,29.8,29.8c4.7,0,8.5,3.8,8.5,8.5S240.7,696.7,236,696.7z"
	/>
<path class="st3" d="M796.6,696.5c-3.9,0-7.4-2.7-8.3-6.6c-1.1-4.6,1.8-9.1,6.4-10.2c7.7-1.8,14.2-6.5,18.4-13.2
	c4.2-6.8,5.6-14.8,3.8-22.6l-0.1-0.5l-50.5-304.7c-1.8-7.6-6.5-14-13.2-18.2c-6.8-4.2-14.8-5.6-22.6-3.8l-0.6,0.1l-93,9
	c-4.7,0.4-8.8-3-9.3-7.6c-0.5-4.7,3-8.8,7.6-9.3l91.9-8.8c12-2.6,24.3-0.5,34.8,6c10.6,6.6,18,16.9,20.8,29l0.1,0.5l50.5,304.7
	c2.7,12.1,0.6,24.6-5.9,35.1c-6.6,10.6-16.9,18-29,20.8C797.9,696.4,797.3,696.5,796.6,696.5z"/>
<path class="st3" d="M634.9,542.2L634.9,542.2c-4.5,0-8.1-3.6-8.1-8.1V318c0-4.5,3.6-8.1,8.1-8.1l0,0c4.5,0,8.1,3.6,8.1,8.1v216.1
	C643.1,538.6,639.4,542.2,634.9,542.2z"/>
<path class="st3" d="M707.6,546.1h-72.7c-4.5,0-8.1-3.6-8.1-8.1l0,0c0-4.5,3.6-8.1,8.1-8.1h72.7c4.5,0,8.1,3.6,8.1,8.1l0,0
	C715.8,542.4,712.1,546.1,707.6,546.1z"/>
<circle class="st5" cx="334.8" cy="687.6" r="71.9"/>
<circle class="st5" cx="674.4" cy="687.6" r="71.9"/>
<path class="st3" d="M597.2,695.7H414.6c-4.4,0-8-3.6-8-8v-0.2c0-4.4,3.6-8,8-8h182.7c4.4,0,8,3.6,8,8v0.2
	C605.3,692.1,601.6,695.7,597.2,695.7z"/>
</svg>
