<?xml version="1.0" encoding="utf-8"?>
<!-- Generator: Adobe Illustrator 22.0.0, SVG Export Plug-In . SVG Version: 6.00 Build 0)  -->
<svg version="1.1" id="图层_1" xmlns="http://www.w3.org/2000/svg" xmlns:xlink="http://www.w3.org/1999/xlink" x="0px" y="0px"
	 viewBox="0 0 1024 1024" style="enable-background:new 0 0 1024 1024;" xml:space="preserve">
<style type="text/css">
	.st0{display:none;fill:#AAAAAA;}
	.st1{opacity:0.4;}
	.st2{fill:#AAAAAA;}
</style>
<path class="st0" d="M509.5,958.1c-60.3,0-118.9-11.8-174-35.1c-53.2-22.5-101-54.7-142.1-95.8s-73.3-88.8-95.8-142.1
	c-23.3-55.1-35.1-113.7-35.1-174s11.8-118.9,35.1-174c22.5-53.2,54.7-101,95.8-142.1c41-41,88.8-73.3,142.1-95.8
	c55.1-23.3,113.7-35.1,174-35.1s118.9,11.8,174,35.1c53.2,22.5,101,54.7,142.1,95.8c41,41,73.3,88.8,95.8,142.1
	c23.3,55.1,35.1,113.7,35.1,174h-26c0-232.1-188.9-421-421-421s-421,188.9-421,421s188.9,421,421,421L509.5,958.1L509.5,958.1z"/>
<g class="st1">
	<path class="st2" d="M455.6,683.4L342,569.7c-31.1-31.1-31.1-82,0-113.1l113.7-113.7c31.1-31.1,82-31.1,113.1,0l113.7,113.7
		c31.1,31.1,31.1,82,0,113.1L568.8,683.4C537.7,714.5,486.7,714.5,455.6,683.4z"/>
</g>
<path class="st2" d="M512.3,842.6c-24.9,0-48.2-9.6-65.7-27.1L208.9,577.9c-36.3-36.3-36.3-95.2,0-131.5l237.5-237.5
	c36.3-36.2,95.2-36.3,131.5,0l237.5,237.5c36.3,36.3,36.3,95.2,0,131.5c-5.1,5.1-13.3,5.1-18.4,0c-5.1-5.1-5.1-13.3,0-18.4
	c26.1-26.1,26.1-68.6,0-94.7L559.5,227.3c-26.1-26.1-68.6-26.1-94.7,0L227.3,464.8c-26.1,26.1-26.1,68.6,0,94.7l237.6,237.6
	c12.6,12.6,29.4,19.5,47.4,19.5c18,0,34.8-6.9,47.4-19.5c5.1-5.1,13.3-5.1,18.4,0c5.1,5.1,5.1,13.3,0,18.4
	C560.5,833,537.1,842.6,512.3,842.6z"/>
<path class="st2" d="M785,925.9L785,925.9c-7.2,0-13-5.8-13-13V700.2c0-7.2,5.8-13,13-13l0,0c7.2,0,13,5.8,13,13v212.7
	C798,920.1,792.1,925.9,785,925.9z"/>
<path class="st2" d="M856.9,772.1L856.9,772.1c-5.1,5.1-13.3,5.1-18.4,0l-62.8-62.8c-5.1-5.1-5.1-13.3,0-18.4l0,0
	c5.1-5.1,13.3-5.1,18.4,0l62.8,62.8C862,758.8,862,767.1,856.9,772.1z"/>
<path class="st2" d="M713,772.1L713,772.1c-5.1-5.1-5.1-13.3,0-18.4l62.8-62.8c5.1-5.1,13.3-5.1,18.4,0l0,0c5.1,5.1,5.1,13.3,0,18.4
	l-62.8,62.8C726.3,777.2,718,777.2,713,772.1z"/>
<path class="st2" d="M510.5,929c-56.3,0-111.1-11.1-162.5-32.8c-49.8-21-94.4-51.2-132.7-89.5s-68.4-82.9-89.5-132.7
	C104.1,622.6,93,567.8,93,511.5s11.1-111.1,32.8-162.5c21-49.8,51.2-94.4,89.5-132.7s82.9-68.4,132.7-89.5
	C399.4,105.1,454.2,94,510.5,94s111.1,11.1,162.5,32.8c49.8,21,94.4,51.2,132.7,89.5s68.4,82.9,89.5,132.7
	c21.7,51.4,32.8,106.2,32.8,162.5c0,56.4-11.1,111.1-32.8,162.5c-2.6,6.2-9.7,9.1-15.9,6.5c-6.2-2.6-9.1-9.7-6.5-15.9
	c20.5-48.4,30.9-99.9,30.9-152.9c-0.1-216.9-176.5-393.2-393.2-393.2S117.4,294.7,117.4,511.5s176.4,393.1,393.1,393.1
	c41.8,0,83-6.6,122.8-19.6c6.4-2.1,13.3,1.4,15.4,7.8c2.1,6.4-1.4,13.3-7.8,15.4C598.7,922,554.8,929,510.5,929z"/>
</svg>
