<?xml version="1.0" encoding="utf-8"?>
<!-- Generator: Adobe Illustrator 22.0.0, SVG Export Plug-In . SVG Version: 6.00 Build 0)  -->
<svg version="1.1" id="图层_1" xmlns="http://www.w3.org/2000/svg" xmlns:xlink="http://www.w3.org/1999/xlink" x="0px" y="0px"
	 viewBox="0 0 1024 1024" style="enable-background:new 0 0 1024 1024;" xml:space="preserve">
<style type="text/css">
	.st0{fill:#333333;}
	.st1{fill:url(#SVGID_1_);}
</style>
<g>
	<path class="st0" d="M870.2,280.1v612.7c0,7.3-6.4,13.4-14,13.4H167.6c-7.6,0-14-6.1-14-13.4V280.1H870.2 M896.2,255.1H127.6v637.6
		c0,21.1,18,38.4,40,38.4h688.6c22,0,40-17.3,40-38.4L896.2,255.1L896.2,255.1z"/>
</g>
<path class="st0" d="M895.9,620.2h-24v-423c0-44.8-38-81.3-84.8-81.3H236c-46.8,0-84.8,36.5-84.8,81.3v423h-24v-423
	C127.2,139.7,176,93,236,93h551.1c60,0,108.8,46.7,108.8,104.2L895.9,620.2L895.9,620.2z"/>
<path class="st0" d="M535.3,199H427.8c-6.6,0-12-5.4-12-12v-28c0-6.6,5.4-12,12-12h107.5c6.6,0,12,5.4,12,12v28
	C547.3,193.6,541.9,199,535.3,199z"/>
<path class="st0" d="M685.4,199H577.9c-6.6,0-12-5.4-12-12v-28c0-6.6,5.4-12,12-12h107.5c6.6,0,12,5.4,12,12v28
	C697.4,193.6,692,199,685.4,199z"/>
<path class="st0" d="M835.5,199H728c-6.6,0-12-5.4-12-12v-28c0-6.6,5.4-12,12-12h107.5c6.6,0,12,5.4,12,12v28
	C847.5,193.6,842.1,199,835.5,199z"/>
<g>
	<path class="st0" d="M511.8,336c34.4,0,67.8,6.7,99.3,20c30.4,12.8,57.6,31.2,81.1,54.7s41.8,50.7,54.7,81.1
		c13.3,31.4,20,64.8,20,99.3c0,34.4-6.7,67.8-20,99.3c-12.8,30.4-31.2,57.6-54.7,81.1s-50.7,41.8-81.1,54.7
		c-31.4,13.3-64.8,20-99.3,20c-34.4,0-67.8-6.7-99.3-20c-30.4-12.8-57.6-31.2-81.1-54.7s-41.8-50.7-54.7-81.1
		c-13.3-31.4-20-64.8-20-99.3c0-34.4,6.7-67.8,20-99.3c12.8-30.4,31.2-57.6,54.7-81.1s50.7-41.8,81.1-54.7
		C444,342.7,477.4,336,511.8,336 M511.8,320c-149.7,0-271,121.3-271,271s121.3,271,271,271s271-121.3,271-271S661.5,320,511.8,320
		L511.8,320z"/>
</g>
<g>
	<path class="st0" d="M511.8,375.4c29.1,0,57.3,5.7,83.9,16.9c25.7,10.9,48.7,26.4,68.5,46.2c19.8,19.8,35.4,42.9,46.2,68.5
		c11.2,26.6,16.9,54.8,16.9,83.9s-5.7,57.3-16.9,83.9c-10.9,25.7-26.4,48.7-46.2,68.5s-42.9,35.4-68.5,46.2
		c-26.6,11.2-54.8,16.9-83.9,16.9s-57.3-5.7-83.9-16.9c-25.7-10.9-48.7-26.4-68.5-46.2s-35.4-42.9-46.2-68.5
		c-11.2-26.6-16.9-54.8-16.9-83.9s5.7-57.3,16.9-83.9c10.9-25.7,26.4-48.7,46.2-68.5s42.9-35.4,68.5-46.2
		C454.5,381.1,482.7,375.4,511.8,375.4 M511.8,359.4c-127.9,0-231.6,103.7-231.6,231.6s103.7,231.6,231.6,231.6
		S743.4,718.9,743.4,591S639.7,359.4,511.8,359.4L511.8,359.4z"/>
</g>
<g>
	
		<linearGradient id="SVGID_1_" gradientUnits="userSpaceOnUse" x1="347.7302" y1="-258.95" x2="676.5128" y2="-258.95" gradientTransform="matrix(1 0 0 1 0 874)">
		<stop  offset="4.073483e-07" style="stop-color:#FFE100"/>
		<stop  offset="1" style="stop-color:#EAB300"/>
	</linearGradient>
	<path class="st1" d="M610.6,748H425.4c-5.9,0-10.6-4.7-10.6-10.6V586c0-5.6-4.4-10.3-10-10.6l-47-2.5c-8-0.4-12.7-9.3-8.5-16.1
		l42.5-69.6c1.9-3.2,5.4-5.1,9-5.1h43.9c2.1,0,4.2,0.6,6,1.8c9.5,6.4,42.2,27.7,62.3,27.7c20,0,51.1-21,60.4-27.5
		c1.8-1.3,3.9-2,6.1-2h45c3.7,0,7.2,2,9.1,5.2l41.4,69.6c4.1,6.8-0.6,15.6-8.5,16l-46,2.5c-5.6,0.3-10,5-10,10.6L610.6,748
		L610.6,748z"/>
</g>
</svg>
