<?xml version="1.0" encoding="utf-8"?>
<!-- Generator: Adobe Illustrator 22.0.0, SVG Export Plug-In . SVG Version: 6.00 Build 0)  -->
<svg version="1.1" id="图层_1" xmlns="http://www.w3.org/2000/svg" xmlns:xlink="http://www.w3.org/1999/xlink" x="0px" y="0px"
	 viewBox="0 0 1024 1024" style="enable-background:new 0 0 1024 1024;" xml:space="preserve">
<style type="text/css">
	.st0{fill:url(#SVGID_1_);}
	.st1{fill:#333333;}
	.st2{fill:#FFE100;}
	.st3{fill:#FFE100;fill-opacity:0;}
</style>
<g>
	
		<linearGradient id="SVGID_1_" gradientUnits="userSpaceOnUse" x1="342.4548" y1="2245.3708" x2="887.7968" y2="2245.3708" gradientTransform="matrix(1 0 0 -1 0 2808)">
		<stop  offset="4.073483e-07" style="stop-color:#FFE100"/>
		<stop  offset="1" style="stop-color:#EAB300"/>
	</linearGradient>
	<path class="st0" d="M849.1,375.9c58.2,81.9,35.8,359.5,27.3,389.1s-467.6,35.5-511.4,6c-46.3-43.5-14.3-337.3,33.1-414.2
		C436,329.6,763.1,319.4,849.1,375.9z"/>
	<path id="XMLID_4_" class="st1" d="M661.5,653.5c-3-9.4-30.8-8.4-30.8-8.4s-27.8-1-30.8,8.4c-3,9.5-4.4,30.8,6,34.7s24.8,0,24.8,0
		s14.4,3.9,24.8,0C665.9,684.3,664.3,662.9,661.5,653.5z"/>
	<path id="XMLID_3_" class="st1" d="M630.4,766c-18-0.3-38-1.9-53.6-4.2c-7.9-1.2-14-4.8-17.8-10.7c-7.7-11.8,1-28.7,1.2-29.5l4,2.3
		c0,0.1-3.7,13.9,2.1,22.6c2.5,3.8,6.4,6.1,11.8,6.8c15.1,2.4,34.7,4.1,52.4,4.1c17.9,0,37.5-1.9,52.6-4.1c5.5-0.9,9.4-3.1,11.8-6.9
		c5.6-8.7,2.1-22.3,2.1-22.6l4-2.3c0.2,0.7,9,17.6,1.2,29.5c-3.8,6-9.9,9.5-17.8,10.7c-15.6,2.4-35.5,4-53.6,4.2
		C630.8,766,630.4,766,630.4,766z"/>
	<path class="st1" d="M629.6,901.4c-152.2,0-295.4-10.3-364.9-26.4h-0.1c-16.5-3.9-29-17.1-31.9-33.7c0-0.1,0-0.1,0-0.2
		c-0.2-1.3-0.4-2.9-0.7-4.4c-11.3-2.3-25.9-5.5-42.4-10.2c-0.8-0.1-1.6-0.2-2.5-0.4c-15.7-4.4-31.6-9.9-47.2-16
		c-0.5-0.1-1.2-0.3-1.8-0.5c-17-7.1-31.7-14.2-45-21.9c-0.5-0.3-1-0.7-1.4-1c-12.8-7.6-23.9-15.6-32.9-23.8
		c-12.7-11.3-22.6-23.6-29.1-36.7c-3.1-6.3-6.2-13.2-8.9-20.7c-0.1-0.3-0.2-0.7-0.3-0.9c-28-76.4,6-135.1,30.6-157.8
		C64,535,104.4,515.3,139.4,524c15.2,3.8,35.4,14.5,45.7,44.1l0.1,0.4c2.3,6.3,3.6,10,5.6,20.1c0.7,3.5,1.2,6.4,1.6,9
		c1.2,6.6,2.1,11,4.3,19.1c3.7,13.6,8.9,27.7,15.3,42c2.9,6.4,6,12.7,9.1,18.7c0-6.1,0-11.9,0.1-18c0-0.7,0-1.2,0.1-1.8
		c0.5-42,5.5-108,13.8-155.3h0.1c12.5-76.6,33.3-151.3,61.9-222.2c-8.2-8-21.9-22.2-34.6-39.5c-28.1-38.2-37.2-71.4-26.9-98.5
		c7.9-20.9,24.9-31.1,45.7-27.1c37.2,7.2,79.3,60.4,84.9,122.1c31.8-2.8,108.8-8.9,196.1-9.9c145.6-1.5,253.7,11,321.6,37.2
		c11.3-18,35.9-52.1,69.2-66.7c23.3-10.3,45.4-5.7,55.2,11.2c4.3,7.5,9.4,23.9-5.5,48.7c-9.8,16.4-26.2,33.6-49,51.3
		c8.7,25.1,30.3,93.3,44,187.8l-28.7,4.1c-16.7-114.8-45.8-191.2-46.1-192c-2.4-6.2-0.3-13.1,5-17c54.9-40,57.6-64.6,55.2-68.5
		c-1.3-2.4-8.7-3.4-18.2,0.9c-35.9,15.8-61.6,64.6-61.8,65.2c-3.6,6.8-11.7,9.8-18.8,6.6c-151.3-67.2-526.7-29-530.5-28.6
		c-4.1,0.4-8.2-0.9-11.3-3.7c-3-2.8-4.8-6.8-4.7-11c0.9-55.4-36.9-104.4-61.8-109.3c-4.4-0.9-9.3-0.9-13,8.9
		c-8.1,21.5,7.9,50.2,22.9,70.5c17.7,24.1,38.2,42.3,38.4,42.5c4.7,4.1,6.2,10.7,3.8,16.5c-29.8,71.7-51.3,147.4-64,225.1l-24.1-3.9
		l24,4.2c-8,45.9-12.9,112.9-13.3,152.5c0,0.7,0,1.2-0.1,1.8c-0.2,22.8,0,45.1,0.9,68.5c0,0.2,0,0.4,0,0.7c0,7.9-6.4,14.4-14.3,14.5
		c-0.1,0-0.2,0-0.2,0c-5.3,0-10-2.8-12.6-7.2l0,0c-8.2-11.9-15.9-24.1-22.6-35.8c-5.7-10-11.1-20.6-16.2-31.7
		c-7.1-15.8-12.7-31.2-16.8-46.1c-2.6-9.2-3.6-14.6-4.9-21.6c-0.4-2.5-1-5.1-1.5-8.5c-1.6-7.9-2.5-10.3-4.4-16l-0.2-0.4v-0.1
		c-4.8-14.1-13.1-22.3-25.3-25.5c-23-5.9-53.5,8.5-61.4,15.9c-11.9,11.1-22.1,28.9-27.3,47.7c-7.1,25.5-5.5,52.3,4.7,79.5
		c0.1,0.3,0.2,0.7,0.3,1.1c2.3,6.1,4.6,11.5,7.2,16.6c4.9,9.8,12.6,19.2,22.6,28.1l0.1,0.1c7.9,7.2,17.8,14.2,29.6,21
		c0.4,0.2,0.9,0.5,1.3,0.9c11.3,6.5,24,12.7,38.5,18.7c0.4,0.1,1,0.3,1.4,0.4c14.3,5.9,29,10.8,43.6,15c0.8,0.1,1.6,0.2,2.5,0.4
		c22,6.3,40.7,10.1,52.3,12.1c6.2,1.1,11,6.1,11.8,12.4c0.8,5.4,1.5,10.2,2.2,14.2c0.9,5,4.8,9.1,10,10.3
		c66.5,15.3,210.4,25.6,358.2,25.6c165.9,0,236.5-7.8,302.5-21.4c15.2-3.1,22.2-17.8,25.1-26.5c14.4-43.2,23.4-118.1,23.3-151
		c0-0.7,0-1.3,0.1-2.1c0.5-55.4-3.4-112.8-11.6-170.7l28.7-4.1c8.7,60,12.7,119.5,11.8,176.9c0,0.5,0,1.1-0.1,1.6
		c-0.2,36.4-9.5,112.6-24.8,158.3c-8.1,24.6-25.2,41.3-46.9,45.7C870.2,893.4,798,901.4,629.6,901.4z M251.2,730.6L251.2,730.6
		L251.2,730.6z M251.2,730.5L251.2,730.5L251.2,730.5z"/>
	<path class="st2" d="M312.1,238.2c0,0-43.7-42.5-41.4-82.9c22,5.6,47.1,26.9,53.8,75.1C324.5,244.9,312.1,238.2,312.1,238.2z"/>
	<path class="st2" d="M927.4,264.4c0,0,22.6-33.2,48.9-36.4c-1.1,14.9-11.9,33.6-42.4,43.5C924.5,273.2,927.4,264.4,927.4,264.4z"/>
	<path class="st3" d="M164.3,674.9c-16.2-41.4-8.2-57.5-17.9-87.3c-24.6-31.3-72.8-4.4-80.6,21.3C50.1,675,79.2,748.9,241.6,787
		C213.6,747.7,185,721.7,164.3,674.9z"/>
	<path class="st3" d="M165.1,676.8c-16.1-41.2-8.2-57.2-17.8-86.9c-24.6-31.2-72.5-4.4-80.3,21.1c-15.7,65.8,13.4,139.5,175.1,177.4
		C214.3,749.3,185.7,723.5,165.1,676.8z"/>
</g>
</svg>
