<?xml version="1.0" encoding="utf-8"?>
<!-- Generator: Adobe Illustrator 22.0.0, SVG Export Plug-In . SVG Version: 6.00 Build 0)  -->
<svg version="1.1" id="图层_1" xmlns="http://www.w3.org/2000/svg" xmlns:xlink="http://www.w3.org/1999/xlink" x="0px" y="0px"
	 viewBox="0 0 1024 1024" style="enable-background:new 0 0 1024 1024;" xml:space="preserve">
<style type="text/css">
	.st0{display:none;}
	.st1{display:inline;}
	.st2{fill:#FFE100;}
	.st3{fill:#43200E;}
	.st4{display:inline;fill:#43200E;}
	.st5{display:inline;fill:#FFD800;}
	.st6{opacity:0.4;fill:#AAAAAA;enable-background:new    ;}
	.st7{fill:#FFFFFF;}
	.st8{fill:#AAAAAA;}
	.st9{fill:#FFE100;fill-opacity:0;}
</style>
<g class="st0">
	<g id="XMLID_1103_" class="st1">
		<path id="XMLID_1145_" class="st2" d="M732.6,652.3c-2.8-1.5-5.6-3.1-8.2-4.8c-91.1-60.5-61.8-172.2-19.3-216.1
			c42.6-43.9,92.4-14.6,125.7,12.6c3.3,2.7,7.1,5.4,11.3,8.2c6.3,4.2,13.5,8.5,21.2,12.7c3.4,1.9,7,3.8,10.5,5.6
			c16.5,8.6,34.1,16.7,48.5,23.1c4.1,1.8,7.9,3.5,11.3,4.9c3.4,1.5,6.5,2.8,9.2,3.9c-15.7-108-43-178.9-43-178.9
			c85.8-62.5,58.5-101.7,20.6-85.1s-63.2,65.8-63.2,65.8c-143.6-63.8-493.4-27.3-493.4-27.3c1.3-81.1-75.8-146.3-94.4-97.1
			c-18.6,49.2,59.8,118.4,59.8,118.4c-30.5,73.3-48.9,144.2-59.5,209.4c8.7,3.1,53.7,2.2,89.6-15.7c47.9-23.9,95.9-85.7,136.6-86
			c1.7-0.4,3.9-0.1,6.5,0.7c51.7,9.8,134.9,135.3,5,256.4c-82.5,73.1-222.7,5.7-250.2-13.2l0,0c-0.3,24.2,0.1,46,0.8,65.4
			c0-0.1-0.1-0.1-0.1-0.2c-13.6,7-46.5,29.1-41.9,74.6c18.7,5.4,35.8,9.1,49.4,11.4c0.7,5,1.4,9.6,2.1,13.4
			c1.7,10,9.3,17.9,19.2,20.2c57.9,13.4,185.2,23.8,331.7,23.8c147,0,214.8-6.5,280.1-19.9c16.6-3.4,27.6-17,33-33.1
			c13.6-40.7,22.2-111.3,22.1-143C919,674.4,810.5,697.6,732.6,652.3z"/>
		<path id="XMLID_1143_" class="st2" d="M223.1,654.6c4.5,10,9.4,19.4,14.3,28.1c-15.5,3.5-65.3,20.3-64.8,92.3
			c-13.7-5.6-27.2-12-39.7-19.3C140.8,667.7,204.2,656.1,223.1,654.6z"/>
		<path id="XMLID_1141_" class="st2" d="M197.8,570.5c2,5.8,3.1,8.6,4.8,17.1c2.3,11.4,2.7,15.7,5.8,26.7
			c-19.1,2.1-84,16.9-104.8,120.4c-10-8.9-18.2-18.8-23.7-29.7c-3-5.9-5.4-11.8-7.5-17.5C91.6,589.8,172.9,575.8,197.8,570.5z"/>
		<path id="XMLID_1124_" class="st3" d="M237.4,682.6c7.2,12.7,14.4,23.7,20.6,32.6c-13.6,7-46.5,29.1-41.9,74.6
			c-14.1-4-28.9-9-43.5-14.9C172.1,702.9,221.9,686.1,237.4,682.6z"/>
		<path id="XMLID_1111_" class="st3" d="M96.6,556.2c15.1-14,81.9-41.7,101.2,14.3C173,575.8,91.6,589.9,72.4,687.4
			C49.5,625.8,74.8,576.3,96.6,556.2z"/>
		<path id="XMLID_1105_" class="st3" d="M208.4,614.2c3.9,14.2,9,27.8,14.7,40.4c-18.9,1.5-82.3,13.1-90.1,101.1
			c-10.8-6.3-20.8-13.3-29.4-21C108.7,626.8,189.3,616.3,208.4,614.2z"/>
	</g>
	<path id="XMLID_1101_" class="st4" d="M942.9,502.5c-25.2-10.5-86.1-37.2-112.1-58.5c-33.2-27.3-83.1-56.5-125.7-12.6
		c-42.6,43.9-71.8,155.6,19.3,216.1c78.3,52,193.5,27.4,229.3,15.2C954.4,604.1,949.7,549.7,942.9,502.5z"/>
	<path id="XMLID_1100_" class="st5" d="M772.6,569.7c15.6-6.1,20.3-9.9,32.4-7.8c19.2,3.3,26.6,16.8,30.1,19.4
		c3,2.3,11.3,4.9,15.9,1.1c7-5.8,2.7-14.6,0.9-18c-0.6-1.1-14.5-21.8-42-26.5c-17.6-3-33.1-1.6-52.6,13.6c-3,2.3-6.4,9.6-1.8,15.1
		C759.8,571.9,768.8,571.2,772.6,569.7z"/>
	<path id="XMLID_1081_" class="st4" d="M645.9,637.9c-2.7-8.4-27.5-7.5-27.5-7.5s-24.8-0.9-27.5,7.5s-4,27.5,5.3,31s22.2,0,22.2,0
		s12.9,3.5,22.2,0S648.5,646.3,645.9,637.9z"/>
	<path id="XMLID_1080_" class="st4" d="M618.1,738.4c-16.1-0.3-33.9-1.7-47.8-3.8c-7.1-1.1-12.5-4.3-15.9-9.6
		c-6.9-10.6,0.9-25.7,1.1-26.3l3.6,2c0,0.1-3.3,12.4,1.8,20.1c2.2,3.4,5.7,5.4,10.6,6.1c13.5,2.1,31,3.7,46.8,3.7
		c16,0,33.5-1.7,47-3.7c4.9-0.8,8.4-2.8,10.6-6.2c5-7.7,1.8-20,1.8-20.1l3.6-2c0.2,0.6,8,15.7,1.1,26.3c-3.4,5.3-8.8,8.5-15.9,9.6
		c-13.9,2.1-31.7,3.6-47.8,3.8C618.5,738.4,618.1,738.4,618.1,738.4z"/>
	<path id="XMLID_1076_" class="st4" d="M507.6,663.2c135.4-126.4,39-257.5-11.6-257.1c-40.7,0.3-88.7,62.1-136.6,86
		c-35.9,18-81.1,18.8-89.7,15.7c-7.6,43.3-12,105.1-12.4,142.2C284.9,668.9,425,736.2,507.6,663.2z"/>
	<path id="XMLID_1074_" class="st5" d="M458.8,569.7c-15.6-6.1-20.3-9.9-32.4-7.8c-19.2,3.3-26.6,16.8-30.1,19.4
		c-3,2.3-11.3,4.9-15.9,1.1c-7-5.8-2.7-14.6-0.9-18c0.6-1.1,14.5-21.8,42-26.5c17.6-3,33.1-1.6,52.6,13.6c3,2.3,6.4,9.6,1.8,15.1
		C471.6,571.9,462.7,571.2,458.8,569.7z"/>
</g>
<path class="st6" d="M847,378.8c57.9,81.5,35.7,357.6,27.2,387c-8.5,29.4-465,35.3-508.5,6c-46.1-43.4-14.3-335.6,32.9-412.1
	C436.1,332.7,761.5,322.6,847,378.8z"/>
<path id="XMLID_2_" class="st7" d="M660.3,654.9c-3-9.4-30.6-8.3-30.6-8.3s-27.7-1-30.6,8.3c-3,9.4-4.4,30.6,6,34.6
	c10.4,3.8,24.8,0,24.8,0s14.4,3.8,24.8,0C664.9,685.5,663.3,664.3,660.3,654.9z"/>
<path id="XMLID_1_" class="st7" d="M629.4,766.8c-17.9-0.3-37.7-1.9-53.3-4.2c-7.9-1.2-13.9-4.8-17.7-10.7
	c-7.7-11.8,1-28.6,1.2-29.3l4,2.2c0,0.1-3.6,13.8,2,22.3c2.5,3.7,6.4,6.1,11.8,6.8c15.1,2.3,34.6,4.1,52.1,4.1
	c17.8,0,37.3-1.9,52.4-4.1c5.5-0.9,9.4-3.1,11.8-6.9c5.7-8.5,2-22.2,2-22.3l4-2.2c0.2,0.6,8.9,17.5,1.2,29.3
	c-3.7,6-9.8,9.5-17.7,10.7c-15.5,2.3-35.3,4-53.3,4.2C629.9,766.8,629.4,766.8,629.4,766.8z"/>
<path class="st8" d="M629.9,901.4c-152.1,0-295.4-10.3-364.7-26.3h-0.1c-16.5-3.9-29-17.2-31.9-33.7c0-0.1,0-0.1,0-0.2
	c-0.2-1.3-0.4-2.9-0.6-4.4c-11.3-2.3-25.9-5.6-42.5-10.2c-0.8-0.1-1.6-0.2-2.5-0.4c-15.7-4.4-31.6-9.9-47.1-16
	c-0.5-0.1-1.2-0.3-1.7-0.5c-17.1-7.1-31.7-14.3-45-21.9c-0.5-0.3-1-0.6-1.4-1C79.6,779,68.4,771,59.5,762.9
	c-12.7-11.3-22.4-23.7-29.1-36.6c-3.1-6.3-6.2-13.2-8.8-20.7c-0.1-0.3-0.2-0.6-0.3-0.9c-28.1-76.4,5.9-135.1,30.4-157.9
	c12.9-11.8,53.3-31.5,88.1-22.7c15.2,3.8,35.4,14.6,45.7,44.1l0.1,0.4c2.3,6.3,3.5,10,5.7,20.1c0.6,3.4,1.2,6.4,1.6,8.9
	c1.2,6.7,2,11,4.3,19c3.7,13.5,8.8,27.7,15.3,42c2.9,6.4,6,12.7,9.1,18.7c0-6.1,0-11.9,0.1-18c0-0.6,0-1.2,0.1-1.7
	c0.5-42.1,5.6-108.1,13.7-155.3h0.1c12.3-76.5,33.3-151.2,61.9-222.2c-8.3-8.1-21.9-22.2-34.7-39.5c-28.1-38.2-37.1-71.4-26.8-98.4
	c7.9-20.9,25-31.1,45.7-27.2c37.1,7.2,79.2,60.3,84.9,122.2c31.8-2.8,108.7-8.8,196-9.9c145.6-1.5,253.5,11,321.5,37.1
	c11.3-18,36-52.1,69.1-66.7c23.2-10.3,45.5-5.8,55.2,11.2c4.3,7.5,9.4,23.9-5.6,48.6c-9.8,16.4-26.2,33.6-49.1,51.2
	c8.6,25.1,30.2,93.3,44,187.7l-28.8,4.1c-16.5-114.5-45.7-190.9-46.1-191.6c-2.4-6.2-0.3-13.1,5-17.1c54.9-39.9,57.5-64.6,55.2-68.5
	c-1.3-2.4-8.6-3.3-18.2,0.9c-36,15.8-61.6,64.6-61.8,65.2c-3.5,6.9-11.7,9.8-18.8,6.7c-151.2-67.2-526.5-29-530.4-28.7
	c-4.1,0.4-8.3-0.9-11.3-3.7c-3-2.8-4.8-6.9-4.7-11c0.9-55.4-36.8-104.4-61.8-109.3c-4.4-0.9-9.3-0.9-13,8.8
	c-8.2,21.5,7.9,50.1,22.8,70.6c17.7,24.1,38.2,42.4,38.4,42.6c4.7,4.1,6.2,10.7,3.8,16.5c-29.7,71.7-51.2,147.4-64,225l-24.1-3.9
	l24,4.2c-8.1,45.9-12.9,112.8-13.3,152.4c0,0.6,0,1.2-0.1,1.7c-0.2,22.7,0,45.2,0.9,68.5c0,0.2,0,0.4,0,0.6
	c0,7.9-6.4,14.5-14.4,14.6c-0.1,0-0.2,0-0.2,0c-5.3,0-10-2.8-12.5-7.2l0,0c-8.3-11.9-15.9-24.1-22.4-35.8
	c-5.8-10-11.1-20.6-16.1-31.7c-7.1-15.8-12.7-31.2-16.8-46.2c-2.6-9.2-3.5-14.7-4.9-21.6c-0.4-2.5-1-5.2-1.5-8.5
	c-1.6-7.9-2.5-10.3-4.4-16l-0.2-0.4v-0.3c-4.8-14.2-13.1-22.3-25.3-25.5c-22.9-5.9-53.5,8.5-61.4,15.9C59.4,579,49.2,596.8,44,615.6
	c-7.1,25.5-5.6,52.4,4.7,79.5c0.1,0.3,0.2,0.6,0.3,1.1c2.3,6.1,4.5,11.5,7.2,16.6c4.9,9.8,12.5,19.1,22.4,28.1l0.1,0.1
	c7.9,7.2,17.8,14.3,29.5,21c0.4,0.2,0.9,0.5,1.3,0.9c11.3,6.5,24,12.7,38.5,18.7c0.4,0.1,1,0.3,1.4,0.4c14.4,5.9,29,10.8,43.6,15
	c0.8,0.1,1.6,0.2,2.5,0.4c22,6.3,40.6,10.1,52.4,12c6.2,1.1,11,6.1,11.8,12.2c0.8,5.5,1.5,10.2,2.1,14.3c0.9,5,4.8,9.1,10,10.3
	c66.4,15.3,210.4,25.7,358.1,25.7c165.9,0,236.5-7.8,302.4-21.4c15.2-3.1,22.2-17.8,25.1-26.4c14.5-43.1,23.4-118.2,23.2-150.9
	c0-0.6,0-1.3,0.1-2c0.5-55.4-3.3-112.7-11.6-170.6l28.8-4.1c8.6,60,12.7,119.5,11.8,176.9c0,0.5,0,1.1-0.1,1.6
	c-0.2,36.4-9.6,112.5-24.9,158.3c-8.2,24.7-25.2,41.2-46.8,45.7C870.4,893.3,798.3,901.4,629.9,901.4z M251.5,730.6L251.5,730.6
	L251.5,730.6z M251.5,730.5L251.5,730.5L251.5,730.5z"/>
<path class="st9" d="M165.9,676.1c-16-41.1-8.2-57.1-17.8-86.8c-24.6-31.2-72.4-4.4-80.2,21.1c-15.6,65.7,13.4,139.3,174.8,177.1
	C215,748.5,186.5,722.7,165.9,676.1z"/>
</svg>
