<?xml version="1.0" encoding="utf-8"?>
<!-- Generator: Adobe Illustrator 22.0.0, SVG Export Plug-In . SVG Version: 6.00 Build 0)  -->
<svg version="1.1" id="图层_1" xmlns="http://www.w3.org/2000/svg" xmlns:xlink="http://www.w3.org/1999/xlink" x="0px" y="0px"
	 viewBox="0 0 1024 1024" style="enable-background:new 0 0 1024 1024;" xml:space="preserve">
<style type="text/css">
	.st0{display:none;}
	.st1{display:inline;}
	.st2{fill:#131313;}
	.st3{display:inline;fill:none;stroke:#131313;stroke-width:14;stroke-miterlimit:10;}
	.st4{display:inline;fill:#AAAAAA;}
	.st5{display:inline;fill:none;stroke:#AAAAAA;stroke-width:26;stroke-miterlimit:10;}
	.st6{display:inline;fill:url(#SVGID_1_);}
	.st7{display:inline;fill:#333333;}
	.st8{display:inline;fill:none;stroke:#333333;stroke-width:26;stroke-miterlimit:10;}
	.st9{fill:#AAAAAA;}
	.st10{display:inline;fill:none;stroke:#AAAAAA;stroke-width:26;stroke-linejoin:round;stroke-miterlimit:10;}
	.st11{fill:none;stroke:#AAAAAA;stroke-width:26;stroke-linejoin:round;stroke-miterlimit:10;}
	.st12{display:none;fill:none;stroke:#AAAAAA;stroke-width:26;stroke-linejoin:round;stroke-miterlimit:10;}
	.st13{display:inline;fill:none;stroke:#AAAAAA;stroke-width:24;stroke-linejoin:round;stroke-miterlimit:10;}
	.st14{fill:#333333;}
	.st15{display:inline;fill:none;stroke:#333333;stroke-width:24;stroke-linejoin:round;stroke-miterlimit:10;}
	.st16{fill:url(#SVGID_2_);}
	.st17{display:inline;fill:none;stroke:#AAAAAA;stroke-width:16;stroke-miterlimit:10;}
	.st18{font-family:'ArialMT';}
	.st19{font-size:620.1664px;}
	.st20{display:inline;fill:none;stroke:#033333;stroke-width:26;stroke-miterlimit:10;}
	.st21{display:inline;fill:none;stroke:#333333;stroke-width:16;stroke-miterlimit:10;}
	.st22{fill:url(#SVGID_3_);}
	.st23{display:inline;fill:none;stroke:#AAAAAA;stroke-width:26;stroke-linecap:round;stroke-miterlimit:10;}
	.st24{fill:url(#SVGID_4_);}
</style>
<g class="st0">
	<g class="st1">
		<path class="st2" d="M278.8,659.3L157.2,293.5c-14.4-43.4-52.7-75.6-87.3-73.5l-0.4-6.4c37.2-2.3,78.5,32,93.7,77.9L285,657.3
			L278.8,659.3z"/>
		<path class="st2" d="M274.8,667.3L151.2,295.6c-13.5-40.7-48.9-71.1-80.9-69.1l-6.4,0.4l-1.2-19.1l6.4-0.4
			c40-2.5,84,33.6,100.1,82.2L293,661.5L274.8,667.3z"/>
	</g>
	<g class="st1">
		<path class="st2" d="M775.1,732.3H390c-48.4,0-93.8-22.8-103.6-51.9l-70.8-210.9c-7.9-23.4-2.9-45.9,14-63.5
			c17.6-18.3,45.6-28.3,78.6-28.3v5.1c-31,0-57.2,9.4-73.5,26.3c-15.6,16.3-20.2,37.2-12.9,59L292.6,679c9.1,27,51.9,48.1,97.4,48.1
			h385c45.6,0,88.4-21.2,97.4-48.1l70.8-211c7.3-21.8,2.8-42.7-12.9-59c-16.3-17-42.5-26.4-73.5-26.4v-5.1c33.1,0,61,10,78.6,28.3
			c16.9,17.6,21.8,40,14,63.5l-70.8,210.9C868.8,709.5,823.3,732.3,775.1,732.3z"/>
		<path class="st2" d="M775.1,737.4H390c-51.1,0-99.3-24.5-109.8-55.7l-70.8-210.9c-8.4-24.9-3-49,15-67.8
			c18.8-19.5,48.5-30.3,83.7-30.3h6.4V388h-6.4c-29,0-53.3,8.6-68.5,24.2c-14.3,15-18.5,34.3-11.8,54.6l70.8,210.9
			C307,702.6,347,722,389.8,722h385c20.9,0,41.9-4.6,59-13.2c16.8-8.3,28.2-19.3,32.1-31.1l70.8-210.9c6.9-20.3,2.7-39.7-11.8-54.5
			c-15-15.7-39.4-24.3-68.5-24.3H850v-15.4h6.4c35.2,0,65,10.8,83.7,30.3c18.1,18.8,23.4,42.8,15,67.8l-70.8,210.9
			C874.3,712.8,826.1,737.4,775.1,737.4z"/>
	</g>
	<g class="st1">
		<g>
			<rect x="505.5" y="426.6" class="st2" width="10.7" height="238.5"/>
			<path class="st2" d="M520.4,668.1h-19.1V423.5h19.1V668.1z M509.8,662h2.1V429.6h-2.1V662z"/>
		</g>
	</g>
	<g class="st1">
		<g>
			<rect x="656.1" y="426.6" class="st2" width="10.7" height="238.5"/>
			<path class="st2" d="M671,668.1h-19.1V423.5H671V668.1z M660.3,662h2.1V429.6h-2.1V662z"/>
		</g>
	</g>
	<g class="st1">
		<g>
			<rect x="415.7" y="540.1" class="st2" width="333.4" height="10.7"/>
			<path class="st2" d="M753.4,554.9H411.5v-19.1h341.9V554.9z M420,546.3h324.9v-2.1H420V546.3z"/>
		</g>
	</g>
	<path class="st3" d="M520.8,766.3c0,28-22.7,50.7-50.7,50.7s-50.7-22.7-50.7-50.7"/>
	<path class="st3" d="M756.5,766.3c0,28-22.7,50.7-50.7,50.7S655,794.3,655,766.3"/>
</g>
<g id="衣柜2" class="st0">
	<rect x="128" y="65.4" class="st4" width="769.1" height="26"/>
	<rect x="128" y="846.7" class="st4" width="768.1" height="26"/>
	<rect x="152.5" y="873.2" class="st4" width="720.3" height="26"/>
	<polyline class="st5" points="513.7,859.5 179,859.5 179,78.5 513.7,78.5 	"/>
	<polyline class="st5" points="499.5,78.5 845.2,78.5 845.2,859.5 499.5,859.5 	"/>
	<rect x="498.4" y="85.3" class="st4" width="29.4" height="787.9"/>
	<rect x="192" y="855.1" class="st4" width="32" height="105.4"/>
	<rect x="799.7" y="855.1" class="st4" width="32" height="105.4"/>
	<path class="st4" d="M448.6,519L448.6,519c-6.1,0-11.1-5-11.1-11.1v-115c0-6.1,5-11.1,11.1-11.1l0,0c6.1,0,11.1,5,11.1,11.1v115
		C459.7,514,454.7,519,448.6,519z"/>
	<path class="st4" d="M576.8,519L576.8,519c-6.1,0-11.1-5-11.1-11.1v-115c0-6.1,5-11.1,11.1-11.1l0,0c6.1,0,11.1,5,11.1,11.1v115
		C587.9,514,582.9,519,576.8,519z"/>
</g>
<g id="衣柜" class="st0">
	
		<linearGradient id="SVGID_1_" gradientUnits="userSpaceOnUse" x1="168.4" y1="1246.15" x2="851.8" y2="1246.15" gradientTransform="matrix(1 0 0 -1 0 1934)">
		<stop  offset="4.073483e-07" style="stop-color:#FFE100"/>
		<stop  offset="1" style="stop-color:#EAB300"/>
	</linearGradient>
	<path class="st6" d="M168.4,858.7c0-188.7,153-341.7,341.7-341.7s341.7,153,341.7,341.7"/>
	<rect x="128" y="65.4" class="st7" width="769.1" height="26"/>
	<rect x="128" y="846.7" class="st7" width="768.1" height="26"/>
	<rect x="152.5" y="873.2" class="st7" width="720.3" height="26"/>
	<polyline class="st8" points="513.7,859.5 179,859.5 179,78.5 513.7,78.5 	"/>
	<polyline class="st8" points="499.5,78.5 845.2,78.5 845.2,859.5 499.5,859.5 	"/>
	<rect x="498.4" y="85.3" class="st7" width="29.4" height="787.9"/>
	<rect x="192" y="855.1" class="st7" width="32" height="105.4"/>
	<rect x="799.7" y="855.1" class="st7" width="32" height="105.4"/>
	<path class="st7" d="M448.6,519L448.6,519c-6.1,0-11.1-5-11.1-11.1v-115c0-6.1,5-11.1,11.1-11.1l0,0c6.1,0,11.1,5,11.1,11.1v115
		C459.7,514,454.7,519,448.6,519z"/>
	<path class="st7" d="M576.8,519L576.8,519c-6.1,0-11.1-5-11.1-11.1v-115c0-6.1,5-11.1,11.1-11.1l0,0c6.1,0,11.1,5,11.1,11.1v115
		C587.9,514,582.9,519,576.8,519z"/>
</g>
<g id="订单" class="st0">
	<g class="st1">
		<path class="st9" d="M857.1,90.2c7.6,0,14,6.4,14,14v816c0,7.6-6.4,14-14,14H168c-7.6,0-14-6.4-14-14v-816c0-7.6,6.4-14,14-14
			L857.1,90.2 M857.1,64.2H168c-22,0-40,18-40,40v816c0,22,18,40,40,40h689.1c22,0,40-18,40-40v-816
			C897.1,82.2,879.1,64.2,857.1,64.2L857.1,64.2z"/>
	</g>
	<path class="st10" d="M844.8,294H689.7c-14.2,0-25.8-11.6-25.8-25.8V113.6"/>
	<path class="st4" d="M602.7,414H204c-6.6,0-12-5.4-12-12v-28c0-6.6,5.4-12,12-12h398.7c6.6,0,12,5.4,12,12v28
		C614.7,408.6,609.3,414,602.7,414z"/>
	<path class="st4" d="M819.2,572H204c-6.6,0-12-5.4-12-12v-28c0-6.6,5.4-12,12-12h615.2c6.6,0,12,5.4,12,12v28
		C831.2,566.6,825.8,572,819.2,572z"/>
	<path class="st4" d="M819.2,729.9H204c-6.6,0-12-5.4-12-12v-28c0-6.6,5.4-12,12-12h615.2c6.6,0,12,5.4,12,12v28
		C831.2,724.5,825.8,729.9,819.2,729.9z"/>
</g>
<g id="协议" class="st0">
	<g class="st1">
		<path class="st9" d="M857.1,90.2c7.6,0,14,6.4,14,14v816c0,7.6-6.4,14-14,14H168c-7.6,0-14-6.4-14-14v-816c0-7.6,6.4-14,14-14
			L857.1,90.2 M857.1,64.2H168c-22,0-40,18-40,40v816c0,22,18,40,40,40h689.1c22,0,40-18,40-40v-816
			C897.1,82.2,879.1,64.2,857.1,64.2L857.1,64.2z"/>
	</g>
	<g class="st1">
		<g>
			<path class="st9" d="M511,91v435.7l-99.7-109.6L392.1,396l-19.2,21.1L273,526.8V91H511 M537,65H247v529l145.1-159.4L537,594V65
				L537,65z"/>
		</g>
	</g>
</g>
<g id="次卡" class="st0">
	<g class="st1">
		<g>
			<path class="st9" d="M920.6,217.8c7.6,0,14,6.4,14,14v559.9c0,7.6-6.4,14-14,14h-816c-7.6,0-14-6.4-14-14V231.8
				c0-7.6,6.4-14,14-14H920.6 M920.6,191.8h-816c-22,0-40,18-40,40v559.9c0,22,18,40,40,40h816c22,0,40-18,40-40V231.8
				C960.6,209.8,942.6,191.8,920.6,191.8L920.6,191.8z"/>
		</g>
	</g>
	<rect x="128.7" y="337" class="st4" width="767.5" height="102"/>
	<rect x="128.1" y="663.9" class="st4" width="75" height="75"/>
	<rect x="236.4" y="663.9" class="st4" width="75" height="75"/>
	<rect x="342.2" y="663.9" class="st4" width="75" height="75"/>
	<rect x="669" y="663.9" class="st4" width="228.4" height="75"/>
</g>
<g id="地址" class="st0">
	<g id="次卡_1_" class="st1">
		<g>
			<path class="st11" d="M945.2,525.7v357.4c0,17.5-17.4,31.9-38.7,31.9H117.4c-21.3,0-38.7-14.3-38.7-31.9V525.7"/>
		</g>
	</g>
	<g id="次卡_2_" class="st1">
		<g>
			<path class="st11" d="M78.7,443.6L482.3,90c16-16,42.1-15.9,58.1,0.1l404.7,354.7"/>
		</g>
	</g>
	<path class="st10" d="M674.7,466.8c0,89.1-161.4,371.4-161.4,371.4S352,555.9,352,466.8s72.2-161.4,161.4-161.4
		S674.7,377.7,674.7,466.8z"/>
</g>
<g id="次卡_4_" class="st0">
	<g class="st1">
		<path class="st11" d="M945.2,525.7v357.4c0,17.5-17.4,31.9-38.7,31.9H117.4c-21.3,0-38.7-14.3-38.7-31.9V525.7"/>
	</g>
</g>
<g id="次卡_3_" class="st0">
	<g class="st1">
		<path class="st11" d="M78.7,443.6L482.3,90c16-16,42.1-15.9,58.1,0.1l404.7,354.7"/>
	</g>
</g>
<path class="st12" d="M674.7,466.8c0,89.1-161.4,371.4-161.4,371.4S352,555.9,352,466.8s72.2-161.4,161.4-161.4
	S674.7,377.7,674.7,466.8z"/>
<g id="洗衣机" class="st0">
	<g class="st1">
		<path class="st9" d="M870.2,282v638.3c0,7.6-6.4,14-14,14H167.6c-7.6,0-14-6.4-14-14V282H870.2 M896.2,256H127.6v664.3
			c0,22,18,40,40,40h688.6c22,0,40-18,40-40L896.2,256L896.2,256z"/>
	</g>
	<path class="st13" d="M139.2,620.2V164c0-55,43.6-100,96.8-100h551.1c53.3,0,96.8,45,96.8,100v456.2"/>
	<path class="st4" d="M535.3,199H427.8c-6.6,0-12-5.4-12-12v-28c0-6.6,5.4-12,12-12h107.5c6.6,0,12,5.4,12,12v28
		C547.3,193.6,541.9,199,535.3,199z"/>
	<path class="st4" d="M685.4,199H577.9c-6.6,0-12-5.4-12-12v-28c0-6.6,5.4-12,12-12h107.5c6.6,0,12,5.4,12,12v28
		C697.4,193.6,692,199,685.4,199z"/>
	<path class="st4" d="M835.5,199H728c-6.6,0-12-5.4-12-12v-28c0-6.6,5.4-12,12-12h107.5c6.6,0,12,5.4,12,12v28
		C847.5,193.6,842.1,199,835.5,199z"/>
	<g class="st1">
		<path class="st9" d="M511.8,336c34.4,0,67.8,6.7,99.3,20c30.4,12.8,57.6,31.2,81.1,54.7s41.8,50.7,54.7,81.1
			c13.3,31.4,20,64.8,20,99.3c0,34.4-6.7,67.8-20,99.3c-12.8,30.4-31.2,57.6-54.7,81.1s-50.7,41.8-81.1,54.7
			c-31.4,13.3-64.8,20-99.3,20c-34.4,0-67.8-6.7-99.3-20c-30.4-12.8-57.6-31.2-81.1-54.7s-41.8-50.7-54.7-81.1
			c-13.3-31.4-20-64.8-20-99.3c0-34.4,6.7-67.8,20-99.3c12.8-30.4,31.2-57.6,54.7-81.1s50.7-41.8,81.1-54.7
			C444,342.7,477.4,336,511.8,336 M511.8,320c-149.7,0-271,121.3-271,271s121.3,271,271,271s271-121.3,271-271S661.5,320,511.8,320
			L511.8,320z"/>
	</g>
	<g class="st1">
		<path class="st9" d="M511.8,375.4c29.1,0,57.3,5.7,83.9,16.9c25.7,10.9,48.7,26.4,68.5,46.2c19.8,19.8,35.4,42.9,46.2,68.5
			c11.2,26.6,16.9,54.8,16.9,83.9s-5.7,57.3-16.9,83.9c-10.9,25.7-26.4,48.7-46.2,68.5s-42.9,35.4-68.5,46.2
			c-26.6,11.2-54.8,16.9-83.9,16.9s-57.3-5.7-83.9-16.9c-25.7-10.9-48.7-26.4-68.5-46.2s-35.4-42.9-46.2-68.5
			c-11.2-26.6-16.9-54.8-16.9-83.9s5.7-57.3,16.9-83.9c10.9-25.7,26.4-48.7,46.2-68.5s42.9-35.4,68.5-46.2
			C454.5,381.1,482.7,375.4,511.8,375.4 M511.8,359.4c-127.9,0-231.6,103.7-231.6,231.6s103.7,231.6,231.6,231.6
			S743.4,718.9,743.4,591S639.7,359.4,511.8,359.4L511.8,359.4z"/>
	</g>
	<g class="st1">
		<path class="st9" d="M622.7,498.2l35,45.6l-52.1,17c-6.6,2.1-11,8.3-11,15.2v156H430.8V576c0-7-4.5-13.1-11.1-15.2l-52.9-17
			l35.8-45.6h40.5c4.5,3,12,7.9,20.7,12.8c20.3,11.3,36.4,16.8,49.1,16.8c12.9,0,28.7-5.5,48.5-16.9c8.3-4.8,15.5-9.6,19.8-12.6
			L622.7,498.2 M630.6,482.2h-54.5c0,0-39.4,29.5-63.1,29.5c-23.7,0-64.9-29.5-64.9-29.5h-53.2L340.1,552l74.8,24v172h195.8V576
			l73.5-24L630.6,482.2L630.6,482.2z"/>
	</g>
</g>
<g id="洗衣机2" class="st0">
	<g class="st1">
		<path class="st14" d="M870.2,282v638.3c0,7.6-6.4,14-14,14H167.6c-7.6,0-14-6.4-14-14V282H870.2 M896.2,256H127.6v664.3
			c0,22,18,40,40,40h688.6c22,0,40-18,40-40L896.2,256L896.2,256z"/>
	</g>
	<path class="st15" d="M139.2,620.2V164c0-55,43.6-100,96.8-100h551.1c53.3,0,96.8,45,96.8,100v456.2"/>
	<path class="st7" d="M535.3,199H427.8c-6.6,0-12-5.4-12-12v-28c0-6.6,5.4-12,12-12h107.5c6.6,0,12,5.4,12,12v28
		C547.3,193.6,541.9,199,535.3,199z"/>
	<path class="st7" d="M685.4,199H577.9c-6.6,0-12-5.4-12-12v-28c0-6.6,5.4-12,12-12h107.5c6.6,0,12,5.4,12,12v28
		C697.4,193.6,692,199,685.4,199z"/>
	<path class="st7" d="M835.5,199H728c-6.6,0-12-5.4-12-12v-28c0-6.6,5.4-12,12-12h107.5c6.6,0,12,5.4,12,12v28
		C847.5,193.6,842.1,199,835.5,199z"/>
	<g class="st1">
		<path class="st14" d="M511.8,336c34.4,0,67.8,6.7,99.3,20c30.4,12.8,57.6,31.2,81.1,54.7s41.8,50.7,54.7,81.1
			c13.3,31.4,20,64.8,20,99.3c0,34.4-6.7,67.8-20,99.3c-12.8,30.4-31.2,57.6-54.7,81.1s-50.7,41.8-81.1,54.7
			c-31.4,13.3-64.8,20-99.3,20c-34.4,0-67.8-6.7-99.3-20c-30.4-12.8-57.6-31.2-81.1-54.7s-41.8-50.7-54.7-81.1
			c-13.3-31.4-20-64.8-20-99.3c0-34.4,6.7-67.8,20-99.3c12.8-30.4,31.2-57.6,54.7-81.1s50.7-41.8,81.1-54.7
			C444,342.7,477.4,336,511.8,336 M511.8,320c-149.7,0-271,121.3-271,271s121.3,271,271,271s271-121.3,271-271S661.5,320,511.8,320
			L511.8,320z"/>
	</g>
	<g class="st1">
		<path class="st14" d="M511.8,375.4c29.1,0,57.3,5.7,83.9,16.9c25.7,10.9,48.7,26.4,68.5,46.2c19.8,19.8,35.4,42.9,46.2,68.5
			c11.2,26.6,16.9,54.8,16.9,83.9s-5.7,57.3-16.9,83.9c-10.9,25.7-26.4,48.7-46.2,68.5s-42.9,35.4-68.5,46.2
			c-26.6,11.2-54.8,16.9-83.9,16.9s-57.3-5.7-83.9-16.9c-25.7-10.9-48.7-26.4-68.5-46.2s-35.4-42.9-46.2-68.5
			c-11.2-26.6-16.9-54.8-16.9-83.9s5.7-57.3,16.9-83.9c10.9-25.7,26.4-48.7,46.2-68.5s42.9-35.4,68.5-46.2
			C454.5,381.1,482.7,375.4,511.8,375.4 M511.8,359.4c-127.9,0-231.6,103.7-231.6,231.6s103.7,231.6,231.6,231.6
			S743.4,718.9,743.4,591S639.7,359.4,511.8,359.4L511.8,359.4z"/>
	</g>
	<g class="st1">
		
			<linearGradient id="SVGID_2_" gradientUnits="userSpaceOnUse" x1="340" y1="1318.9" x2="684" y2="1318.9" gradientTransform="matrix(1 0 0 -1 0 1934)">
			<stop  offset="4.073483e-07" style="stop-color:#FFE100"/>
			<stop  offset="1" style="stop-color:#EAB300"/>
		</linearGradient>
		<path class="st16" d="M610.6,748H414.8V576L340,552l54.8-69.8H448c0,0,41.2,29.5,64.9,29.5s63.1-29.5,63.1-29.5h54.5L684,552
			l-73.5,24L610.6,748L610.6,748z"/>
	</g>
</g>
<g id="充值" class="st0">
	<path class="st5" d="M509.5,945.1c-239.7,0-434-194.3-434-434s194.3-434,434-434s434,194.3,434,434"/>
	<path class="st17" d="M568.8,806.3c-31.1,31.1-82,31.1-113.1,0L218.1,568.7c-31.1-31.1-31.1-82,0-113.1l237.5-237.5
		c31.1-31.1,82-31.1,113.1,0l237.5,237.5c31.1,31.1,31.1,82,0,113.1"/>
	<g class="st1">
		<path class="st9" d="M455.6,683.4L342,569.7c-31.1-31.1-31.1-82,0-113.1l113.7-113.7c31.1-31.1,82-31.1,113.1,0l113.7,113.7
			c31.1,31.1,31.1,82,0,113.1L568.8,683.4C537.7,714.5,486.7,714.5,455.6,683.4z"/>
	</g>
	<text transform="matrix(1 0 0 1 623.424 959.558)" class="st4 st18 st19">+</text>
</g>
<g id="充值_1_" class="st0">
	<path class="st20" d="M509.5,945.1c-239.7,0-434-194.3-434-434s194.3-434,434-434s434,194.3,434,434"/>
	<path class="st21" d="M568.8,806.3c-31.1,31.1-82,31.1-113.1,0L218.1,568.7c-31.1-31.1-31.1-82,0-113.1l237.5-237.5
		c31.1-31.1,82-31.1,113.1,0l237.5,237.5c31.1,31.1,31.1,82,0,113.1"/>
	<g class="st1">
		
			<linearGradient id="SVGID_3_" gradientUnits="userSpaceOnUse" x1="318.675" y1="1420.85" x2="705.825" y2="1420.85" gradientTransform="matrix(1 0 0 -1 0 1934)">
			<stop  offset="4.073483e-07" style="stop-color:#FFE100"/>
			<stop  offset="1" style="stop-color:#EAB300"/>
		</linearGradient>
		<path class="st22" d="M455.6,683.4L342,569.7c-31.1-31.1-31.1-82,0-113.1l113.7-113.7c31.1-31.1,82-31.1,113.1,0l113.7,113.7
			c31.1,31.1,31.1,82,0,113.1L568.8,683.4C537.7,714.5,486.7,714.5,455.6,683.4z"/>
	</g>
	<text transform="matrix(1 0 0 1 623.424 959.558)" class="st7 st18 st19">+</text>
</g>
<g class="st0">
	<circle class="st23" cx="512.6" cy="289.5" r="213.5"/>
	<g class="st1">
		<g>
			<path class="st9" d="M512.6,127.4c-90.5,0-163.8,73.3-163.8,163.8S422.1,455,512.6,455s163.8-73.3,163.8-163.8
				S603.1,127.4,512.6,127.4z M620.2,360.7c-28.7,28.7-66.9,44.5-107.5,44.5s-78.8-15.8-107.5-44.5c-5.1-5.1-5.1-13.3,0-18.4
				s13.3-5.1,18.4,0c23.8,23.8,55.5,36.9,89.2,36.9s65.3-13.1,89.2-36.9c5.1-5.1,13.3-5.1,18.4,0
				C625.2,347.4,625.2,355.6,620.2,360.7z"/>
		</g>
	</g>
	<path class="st23" d="M77,904.9c0-216.3,194.5-391.7,434.5-391.7S946,688.6,946,904.9"/>
	<path class="st4" d="M513.6,904.9h-2c-6.6,0-12-5.4-12-12V716.2c0-6.6,5.4-12,12-12h2c6.6,0,12,5.4,12,12v176.7
		C525.6,899.5,520.2,904.9,513.6,904.9z"/>
</g>
<path class="st14" d="M512.6,543c-60.5,0-117.4-23.6-160.2-66.3c-42.8-42.8-66.3-99.7-66.3-160.2s23.6-117.4,66.3-160.2
	C395.2,113.6,452.1,90,512.6,90s117.4,23.6,160.2,66.3c42.8,42.8,66.3,99.7,66.3,160.2s-23.6,117.4-66.3,160.2
	C630,519.4,573.1,543,512.6,543z M512.6,116c-110.6,0-200.5,89.9-200.5,200.5S402,517,512.6,517s200.5-89.9,200.5-200.5
	S623.2,116,512.6,116z"/>
<g>
	<g>
		<linearGradient id="SVGID_4_" gradientUnits="userSpaceOnUse" x1="348.8" y1="318.2" x2="676.4" y2="318.2">
			<stop  offset="4.073483e-07" style="stop-color:#FFE100"/>
			<stop  offset="1" style="stop-color:#EAB300"/>
		</linearGradient>
		<path class="st24" d="M512.6,154.4c-90.5,0-163.8,73.3-163.8,163.8S422.1,482,512.6,482s163.8-73.3,163.8-163.8
			S603.1,154.4,512.6,154.4z M620.2,387.7c-28.7,28.7-66.9,44.5-107.5,44.5s-78.8-15.8-107.5-44.5c-5.1-5.1-5.1-13.3,0-18.4
			s13.3-5.1,18.4,0c23.8,23.8,55.5,36.9,89.2,36.9s65.3-13.1,89.2-36.9c5.1-5.1,13.3-5.1,18.4,0
			C625.2,374.4,625.2,382.6,620.2,387.7z"/>
	</g>
</g>
<path class="st14" d="M946,902.4c-7.2,0-13-5.3-13-11.8c0-190-189.1-344.7-421.5-344.7S90,700.5,90,890.6c0,6.6-5.8,11.8-13,11.8
	s-13-5.3-13-11.8c0-49.9,11.9-98.2,35.4-143.8c22.6-43.9,55-83.3,96.2-117.1c41.1-33.8,88.9-60.2,142.2-78.6
	c55.1-19.1,113.5-28.8,173.8-28.8s118.7,9.6,173.8,28.8c53.2,18.5,101.1,45,142.2,78.6c41.2,33.8,73.6,73.2,96.2,117.1
	c23.5,45.5,35.4,93.9,35.4,143.8C959,897.1,953.2,902.4,946,902.4z"/>
<path class="st14" d="M513.6,903.9h-2c-6.6,0-12-5.4-12-12V715.2c0-6.6,5.4-12,12-12h2c6.6,0,12,5.4,12,12v176.7
	C525.6,898.5,520.2,903.9,513.6,903.9z"/>
</svg>
