<?xml version="1.0" encoding="utf-8"?>
<!-- Generator: Adobe Illustrator 22.1.0, SVG Export Plug-In . SVG Version: 6.00 Build 0)  -->
<svg version="1.1" id="图层_1" xmlns="http://www.w3.org/2000/svg" xmlns:xlink="http://www.w3.org/1999/xlink" x="0px" y="0px"
	 viewBox="0 0 400 400" style="enable-background:new 0 0 400 400;" xml:space="preserve">
<path d="M217.8,97.6H97c-6.6,0-12-5.4-12-12v-2c0-6.6,5.4-12,12-12h120.8c6.6,0,12,5.4,12,12v2C229.8,92.2,224.4,97.6,217.8,97.6z"
	/>
<path d="M294,201H97c-6.6,0-12-5.4-12-12v-2c0-6.6,5.4-12,12-12h197c6.6,0,12,5.4,12,12v2C306,195.6,300.6,201,294,201z"/>
<path d="M294,306.5H97c-6.6,0-12-5.4-12-12v-2c0-6.6,5.4-12,12-12h197c6.6,0,12,5.4,12,12v2C306,301.1,300.6,306.5,294,306.5z"/>
<g>
	<path d="M320,33.2c7.6,0,14,6.4,14,14V355c0,7.6-6.4,14-14,14H74.8c-7.6,0-14-6.4-14-14V47.2c0-7.6,6.4-14,14-14H320 M320,7.2H74.8
		c-22,0-40,18-40,40V355c0,22,18,40,40,40H320c22,0,40-18,40-40V47.2C360,25.2,342,7.2,320,7.2L320,7.2z"/>
</g>
</svg>
