<?xml version="1.0" encoding="utf-8"?>
<!-- Generator: Adobe Illustrator 22.1.0, SVG Export Plug-In . SVG Version: 6.00 Build 0)  -->
<svg version="1.1" id="图层_1" xmlns="http://www.w3.org/2000/svg" xmlns:xlink="http://www.w3.org/1999/xlink" x="0px" y="0px"
	 viewBox="0 0 400 400" style="enable-background:new 0 0 400 400;" xml:space="preserve">
<style type="text/css">
	.st0{fill:#FFFFFF;}
	.st1{fill:#AAAAAA;}
	.st2{fill:#FFB100;}
</style>
<path class="st0" d="M350.4,388H49.6c-22,0-40-18-40-40V47.2c0-22,18-40,40-40h300.8c22,0,40,18,40,40V348
	C390.4,370,372.4,388,350.4,388z"/>
<path class="st1" d="M350.4,31.2c8.7,0,16,7.3,16,16V348c0,8.7-7.3,16-16,16H49.6c-8.7,0-16-7.3-16-16V47.2c0-8.7,7.3-16,16-16
	H350.4"/>
<path class="st2" d="M350.4,7.2H49.6c-22,0-40,18-40,40V348c0,22,18,40,40,40h300.8c22,0,40-18,40-40V47.2
	C390.4,25.2,372.4,7.2,350.4,7.2L350.4,7.2z"/>
<path class="st0" d="M176.5,287.6L176.5,287.6c-7.8,7.8-20.5,7.8-28.3,0l-75-75c-7.8-7.8-7.8-20.5,0-28.3l0,0
	c7.8-7.8,20.5-7.8,28.3,0l75,75C184.2,267.1,184.2,279.8,176.5,287.6z"/>
<path class="st0" d="M148.5,287.9L148.5,287.9c-7.8-7.8-7.8-20.5,0-28.3l148.7-148.7c7.8-7.8,20.5-7.8,28.3,0l0,0
	c7.8,7.8,7.8,20.5,0,28.3L176.8,287.9C169,295.7,156.3,295.7,148.5,287.9z"/>
</svg>
