<?xml version="1.0" encoding="utf-8"?>
<!-- Generator: Adobe Illustrator 22.1.0, SVG Export Plug-In . SVG Version: 6.00 Build 0)  -->
<svg version="1.1" id="图层_1" xmlns="http://www.w3.org/2000/svg" xmlns:xlink="http://www.w3.org/1999/xlink" x="0px" y="0px"
	 viewBox="0 0 400 400" style="enable-background:new 0 0 400 400;" xml:space="preserve">
<style type="text/css">
	.st0{display:none;}
</style>
<path d="M201,31.1c16,0,31.7,3.3,46.7,9.7c14.3,6.2,27.3,14.9,38.7,25.9c22.3,21.7,35,49.4,35,76.1c0,10.5-6.7,44.8-68.5,135.7
	c-19,27.9-38.1,53.7-51.9,71.7c-13.7-17.9-32.8-43.6-51.7-71.4c-62-91.1-68.7-125.5-68.7-136c0-26.7,12.8-54.4,35-76.1
	C127,55.7,140,47,154.3,40.8C169.3,34.4,185,31.1,201,31.1 M201,5.1C120.1,5.1,54.6,74,54.6,142.9S201,392.5,201,392.5
	s146.5-180.7,146.5-249.6S281.9,5.1,201,5.1L201,5.1z"/>
<circle cx="200.8" cy="146.6" r="52.3"/>
</svg>
