<?xml version="1.0" encoding="utf-8"?>
<!-- Generator: Adobe Illustrator 22.0.0, SVG Export Plug-In . SVG Version: 6.00 Build 0)  -->
<svg version="1.1" id="图层_1" xmlns="http://www.w3.org/2000/svg" xmlns:xlink="http://www.w3.org/1999/xlink" x="0px" y="0px"
	 viewBox="0 0 1024 1024" style="enable-background:new 0 0 1024 1024;" xml:space="preserve">
<style type="text/css">
	.st0{fill:url(#SVGID_1_);}
	.st1{display:none;}
	.st2{display:inline;}
	.st3{fill:#FFFFFF;}
	.st4{opacity:0.41;fill:#FFFFFF;enable-background:new    ;}
	.st5{enable-background:new    ;}
</style>
<linearGradient id="SVGID_1_" gradientUnits="userSpaceOnUse" x1="900.5344" y1="101.6406" x2="123.2156" y2="-675.6781" gradientTransform="matrix(1 0 0 1 0 799)">
	<stop  offset="2.012780e-07" style="stop-color:#FF8982"/>
	<stop  offset="1" style="stop-color:#F5AA76"/>
</linearGradient>
<path class="st0" d="M665.8,998.3h-308C175.1,998.3,25.6,848.7,25.6,666V358c0-182.7,149.5-332.3,332.3-332.3h308
	c182.7,0,332.3,149.5,332.3,332.3v308C998.1,848.7,848.6,998.3,665.8,998.3z"/>
<g id="衣柜2" class="st1">
	<g class="st2">
		<g>
			<rect x="262.5" y="221.9" class="st3" width="500.2" height="16.9"/>
			<rect x="262.5" y="730" class="st3" width="499.5" height="16.9"/>
			<rect x="278.4" y="747.2" class="st3" width="468.4" height="16.9"/>
			<polygon class="st3" points="513.3,746.8 287.2,746.8 287.2,222 513.3,222 513.3,238.9 304.1,238.9 304.1,729.9 513.3,729.9 			
				"/>
			<polygon class="st3" points="737.3,746.8 504.1,746.8 504.1,729.9 720.4,729.9 720.4,238.9 504.1,238.9 504.1,222 737.3,222 			
				"/>
			<rect x="503.3" y="234.8" class="st3" width="19.1" height="512.4"/>
			<rect x="304.1" y="735.5" class="st3" width="20.8" height="68.5"/>
			<rect x="699.3" y="735.5" class="st3" width="20.8" height="68.5"/>
			<path class="st3" d="M471,516.9L471,516.9c-4,0-7.2-3.3-7.2-7.2v-74.8c0-4,3.3-7.2,7.2-7.2l0,0c4,0,7.2,3.3,7.2,7.2v74.8
				C478.2,513.6,474.9,516.9,471,516.9z"/>
			<path class="st3" d="M554.3,516.9L554.3,516.9c-4,0-7.2-3.3-7.2-7.2v-74.8c0-4,3.3-7.2,7.2-7.2l0,0c4,0,7.2,3.3,7.2,7.2v74.8
				C561.6,513.6,558.3,516.9,554.3,516.9z"/>
		</g>
	</g>
</g>
<g>
	<path class="st4" d="M738.2,447.2H290.4c-6.3,0-11.5-5.2-11.5-11.5c0,0,0,0,0,0l29.7-128.4c0,0,0,0,0,0c0-6.3,5.2-11.5,11.5-11.5
		h386.6c6.3,0,11.5,5.2,11.5,11.5c0,0,0,0,0,0l31.6,128.4c0,0,0,0,0,0C749.6,442,744.5,447.2,738.2,447.2z"/>
	<path class="st3" d="M701.5,324H331.3c-4.3,0-7.8-3.5-7.8-7.8l0,0c0-4.3,3.5-7.8,7.8-7.8h370.1c4.3,0,7.8,3.5,7.8,7.8v0.1
		C709.3,320.5,705.8,324,701.5,324z"/>
	<g>
		<path class="st3" d="M731.7,281.4l46.5,183.8c1.9,7.6-3.8,15-11.7,15H266c-7.8,0-13.6-7.4-11.7-15L298,290.6
			c1.3-5.4,6.2-9.1,11.7-9.1H731.7 M744.6,264.8H296.8c-5.5,0-10.4,3.8-11.7,9.1l-52.1,208c-1.9,7.6,3.8,15,11.7,15h543.1
			c7.9,0,13.6-7.4,11.7-15L744.6,264.8L744.6,264.8z"/>
	</g>
	<path class="st3" d="M306.4,558.9c-40.4,0-73.3-33.2-73.4-74c0-0.1,0.1-0.1,0.1-0.1h16.2c0.1,0,0.1,0.1,0.1,0.1
		c0.1,31.6,25.6,57.4,56.9,57.4s56.8-25.8,56.9-57.4c0-0.1,0.1-0.1,0.1-0.1h16.2c0.1,0,0.1,0.1,0.1,0.1
		C379.7,525.6,346.8,558.9,306.4,558.9z"/>
	<path class="st3" d="M445.8,558.9c-40.4,0-73.3-33.2-73.4-74c0-0.1,0.1-0.1,0.1-0.1h16.2c0.1,0,0.1,0.1,0.1,0.1
		c0.1,31.6,25.6,57.4,56.9,57.4s56.8-25.8,56.9-57.4c0-0.1,0.1-0.1,0.1-0.1h16.1c0.1,0,0.1,0.1,0.1,0.1
		C519,525.6,486.1,558.9,445.8,558.9z"/>
	<path class="st3" d="M586.8,558.9c-40.4,0-73.3-33.2-73.4-74c0-0.1,0.1-0.1,0.1-0.1h16.2c0.1,0,0.1,0.1,0.1,0.1
		c0.1,31.6,25.6,57.4,56.9,57.4s56.8-25.8,56.9-57.4c0-0.1,0.1-0.1,0.1-0.1H660c0.1,0,0.1,0.1,0.1,0.1
		C660.1,525.6,627.1,558.9,586.8,558.9z"/>
	<path class="st3" d="M726.5,558.9c-40.4,0-73.3-33.2-73.4-74c0-0.1,0.1-0.1,0.1-0.1h16.2c0.1,0,0.1,0.1,0.1,0.1
		c0.1,31.6,25.6,57.4,56.9,57.4s56.8-25.8,56.9-57.4c0-0.1,0.1-0.1,0.1-0.1h16.2c0.1,0,0.1,0.1,0.1,0.1
		C799.8,525.6,766.9,558.9,726.5,558.9z"/>
	<g class="st5">
		<path class="st3" d="M423,684.9v-46.1c0-1.4,1.2-2.6,2.6-2.6h5.8c1.1,0,2.1,0.7,2.4,1.8l11.5,34.5c0,0,0,0.1,0,0.1
			c0.8,2.3,4.1,2.4,4.9,0c0.1-0.2,0.2-0.5,0.3-0.8l11.7-33.9c0.4-1,1.3-1.7,2.4-1.7h4.7c1.4,0,2.6,1.2,2.6,2.6v46.1
			c0,1.4-1.2,2.6-2.6,2.6H468c-1.4,0-2.6-1.2-2.6-2.6v-25c0-2.9-4.1-3.6-5-0.8l-9.3,26.7c-0.4,1-1.3,1.7-2.4,1.7h-2.4
			c-1.1,0-2.1-0.7-2.4-1.7l-9.2-27.1c-0.9-2.8-5-2.1-5,0.8v25.4c0,1.4-1.2,2.6-2.6,2.6h-1.4C424.2,687.5,423,686.4,423,684.9z"/>
		<path class="st3" d="M478.9,683.2l17.2-44.8c0.5-1.2,1.7-2,3-2h3c1.3,0,2.5,0.8,2.9,2l18.4,44.8c0.9,2.1-0.7,4.4-2.9,4.4h-0.8
			c-1.3,0-2.5-0.8-3-2l-4.4-11.4c-0.5-1.2-1.7-2-3-2h-17c-1.3,0-2.5,0.8-3,2.1l-4.1,11.3c-0.5,1.3-1.7,2.1-3,2.1h-0.3
			C479.6,687.5,478.1,685.3,478.9,683.2z M496.6,666.5h8.2c2.2,0,3.8-2.2,3-4.3l-3.7-9.9c-0.1-0.3-0.3-0.7-0.4-1c-1-2.8-5-2.7-6,0.1
			c0,0,0,0.1,0,0.1l-4,10.7C492.8,664.3,494.4,666.5,496.6,666.5z"/>
		<path class="st3" d="M530.3,684.5v-45.2c0-1.7,1.4-3,3-3h0.7c1.7,0,3,1.4,3,3v39.1c0,1.7,1.4,3,3,3h19.2c1.7,0,3,1.4,3,3l0,0
			c0,1.7-1.4,3-3,3h-26C531.6,687.5,530.3,686.2,530.3,684.5z"/>
		<path class="st3" d="M570.1,684.5v-45.2c0-1.7,1.4-3,3-3h0.7c1.7,0,3,1.4,3,3v39.1c0,1.7,1.4,3,3,3h19.2c1.7,0,3,1.4,3,3l0,0
			c0,1.7-1.4,3-3,3h-26C571.4,687.5,570.1,686.2,570.1,684.5z"/>
	</g>
	<path class="st3" d="M781.5,768.5H250.5c-11.2,0-20.3-9.2-20.3-20.5V613c0-4.7,3.8-8.5,8.5-8.5s8.5,3.8,8.5,8.5V748
		c0,1.9,1.5,3.5,3.3,3.5h531.1c1.8,0,3.3-1.6,3.3-3.5V613c0-4.7,3.8-8.5,8.5-8.5s8.5,3.8,8.5,8.5V748
		C801.8,759.3,792.7,768.5,781.5,768.5z"/>
</g>
</svg>
