<?xml version="1.0" encoding="utf-8"?>
<!-- Generator: Adobe Illustrator 22.1.0, SVG Export Plug-In . SVG Version: 6.00 Build 0)  -->
<svg version="1.1" id="图层_1" xmlns="http://www.w3.org/2000/svg" xmlns:xlink="http://www.w3.org/1999/xlink" x="0px" y="0px"
	 viewBox="0 0 400 400" style="enable-background:new 0 0 400 400;" xml:space="preserve">
<g>
	<path d="M196.8,33c44.4,0,80.5,36.1,80.5,80.5S241.2,194,196.8,194s-80.5-36.1-80.5-80.5S152.4,33,196.8,33 M196.8,7
		C138,7,90.3,54.7,90.3,113.5S138,220,196.8,220s106.5-47.7,106.5-106.5S255.6,7,196.8,7L196.8,7z"/>
</g>
<path d="M382,393.7c-7.2,0-13-5.8-13-13c0-69.9-38-134.6-96.7-164.7c-6.4-3.3-8.9-11.1-5.6-17.5c3.3-6.4,11.1-8.9,17.5-5.6
	c32.8,16.8,60.5,43,80.1,75.7C384.4,302,395,340.8,395,380.7C395,387.9,389.2,393.7,382,393.7z"/>
<path d="M17.4,393.7c-7.2,0-13-5.8-13-13c0-45.2,13.3-88.1,38.6-124.3c24.5-35.1,59.5-61.6,98.4-74.6c6.8-2.3,14.2,1.4,16.4,8.2
	c2.3,6.8-1.4,14.2-8.2,16.4C78.3,230.3,30.4,300.3,30.4,380.7C30.4,387.9,24.6,393.7,17.4,393.7z"/>
</svg>
