<?xml version="1.0" encoding="utf-8"?>
<!-- Generator: Adobe Illustrator 22.0.0, SVG Export Plug-In . SVG Version: 6.00 Build 0)  -->
<svg version="1.1" id="图层_1" xmlns="http://www.w3.org/2000/svg" xmlns:xlink="http://www.w3.org/1999/xlink" x="0px" y="0px"
	 viewBox="0 0 1024 1024" style="enable-background:new 0 0 1024 1024;" xml:space="preserve">
<style type="text/css">
	.st0{fill:url(#SVGID_1_);}
	.st1{display:none;}
	.st2{display:inline;opacity:0.41;fill:#FFFFFF;enable-background:new    ;}
	.st3{display:inline;}
	.st4{fill:#FFFFFF;}
	.st5{opacity:0.41;fill:#FFFFFF;enable-background:new    ;}
</style>
<linearGradient id="SVGID_1_" gradientUnits="userSpaceOnUse" x1="900.4094" y1="946.5969" x2="123.6031" y2="1723.4031" gradientTransform="matrix(1 0 0 -1 0 1847)">
	<stop  offset="2.012780e-07" style="stop-color:#D8AAFF"/>
	<stop  offset="1" style="stop-color:#BFD5FF"/>
</linearGradient>
<path class="st0" d="M665.7,998H358.3C175.5,998,26,848.5,26,665.7V358.3C26,175.5,175.5,26,358.3,26h307.5
	C848.5,26,998,175.5,998,358.3v307.5C998,848.5,848.5,998,665.7,998z"/>
<g class="st1">
	<circle class="st2" cx="508" cy="512.8" r="221.9"/>
	<g class="st3">
		<g>
			<g>
				<g>
					<polygon class="st4" points="520.1,487.8 491,487.8 428,348.8 457.1,348.8 					"/>
					<polygon class="st4" points="501.5,487.8 530.7,487.8 593.7,348.8 564.5,348.8 					"/>
					<rect x="390.1" y="460.4" class="st4" width="241.8" height="28.5"/>
					<rect x="390.1" y="539" class="st4" width="241.8" height="28.5"/>
					<rect x="496.7" y="466.3" class="st4" width="28.5" height="207.9"/>
				</g>
				<rect x="703.4" y="663.2" class="st4" width="15.4" height="147.9"/>
				<rect x="637.2" y="729.5" class="st4" width="147.9" height="15.4"/>
				<path class="st4" d="M506.5,810.2c-40.3,0-79.3-7.9-116-23.4c-35.5-15-67.4-36.5-94.7-63.9c-27.3-27.3-48.9-59.3-63.9-94.7
					c-15.6-36.8-23.4-75.8-23.4-116s7.9-79.3,23.4-116c15-35.5,36.5-67.4,63.9-94.8c27.3-27.4,59.3-48.9,94.7-63.9
					c36.7-15.6,75.8-23.5,116-23.5s79.3,7.9,116,23.4c35.5,15,67.4,36.5,94.7,63.9s48.9,59.3,63.9,94.7
					c15.6,36.8,23.4,75.8,23.4,116c0,38.9-7.4,76.6-21.9,112.2l-16-6.5c13.6-33.5,20.6-69.1,20.6-105.7
					c0-154.8-126-280.8-280.8-280.8S225.5,357.1,225.5,512c0.1,154.9,126.2,280.9,281,280.9c29.9,0,59.5-4.7,88-14l5.4,16.4
					C569.7,805.2,538.3,810.2,506.5,810.2z"/>
			</g>
		</g>
	</g>
</g>
<path class="st5" d="M756.2,672.8H267.5c-6.3,0-11.5-5.2-11.5-11.5V556.1c0-6.3,5.2-11.5,11.5-11.5h488.6c6.3,0,11.5,5.2,11.5,11.5
	v105.2C767.7,667.7,762.5,672.8,756.2,672.8z"/>
<g>
	<g>
		<path class="st4" d="M773.6,322.7c4.9,0,9,4.1,9,9v359.1c0,4.9-4,9-9,9H250.3c-4.9,0-9-4-9-9V331.7c0-4.9,4-9,9-9H773.6
			 M773.6,306.1H250.3c-14.1,0-25.6,11.5-25.6,25.6v359.1c0,14.1,11.5,25.6,25.6,25.6h523.3c14.1,0,25.6-11.5,25.6-25.6V331.7
			C799.2,317.6,787.7,306.1,773.6,306.1L773.6,306.1z"/>
	</g>
</g>
<path class="st4" d="M757.7,437.8h-496c-5.5,0-10-4.5-10-10v-12c0-5.5,4.5-10,10-10h496c5.5,0,10,4.5,10,10v12
	C767.7,433.3,763.2,437.8,757.7,437.8z"/>
<circle class="st4" cx="287" cy="641" r="16"/>
<circle class="st4" cx="332" cy="641" r="16"/>
<circle class="st4" cx="377" cy="641" r="16"/>
<path class="st4" d="M742,657H539c-6.6,0-12-5.4-12-12v-8c0-6.6,5.4-12,12-12h203c6.6,0,12,5.4,12,12v8C754,651.6,748.6,657,742,657
	z"/>
</svg>
