<?xml version="1.0" encoding="utf-8"?>
<!-- Generator: Adobe Illustrator 22.0.0, SVG Export Plug-In . SVG Version: 6.00 Build 0)  -->
<svg version="1.1" id="图层_1" xmlns="http://www.w3.org/2000/svg" xmlns:xlink="http://www.w3.org/1999/xlink" x="0px" y="0px"
	 viewBox="0 0 1024 1024" style="enable-background:new 0 0 1024 1024;" xml:space="preserve">
<style type="text/css">
	.st0{fill:url(#SVGID_1_);}
	.st1{display:none;}
	.st2{display:inline;}
	.st3{opacity:0.42;clip-path:url(#SVGID_3_);fill:#FFFFFF;enable-background:new    ;}
	.st4{display:none;fill:#FFFFFF;}
	.st5{opacity:0.42;clip-path:url(#SVGID_5_);fill:#FFFFFF;enable-background:new    ;}
	.st6{fill:#FFFFFF;}
	.st7{opacity:0.41;fill:#FFFFFF;enable-background:new    ;}
</style>
<linearGradient id="SVGID_1_" gradientUnits="userSpaceOnUse" x1="900.5344" y1="946.3594" x2="123.2156" y2="1723.6781" gradientTransform="matrix(1 0 0 -1 0 1847)">
	<stop  offset="2.012780e-07" style="stop-color:#1FD7D2"/>
	<stop  offset="1" style="stop-color:#06F793"/>
</linearGradient>
<path class="st0" d="M665.8,998.3h-308C175.1,998.3,25.6,848.7,25.6,666V358c0-182.7,149.5-332.3,332.3-332.3h308
	c182.7,0,332.3,149.5,332.3,332.3v308C998.1,848.7,848.6,998.3,665.8,998.3z"/>
<g id="vipka_1_">
	<g>
		<g class="st1">
			<g class="st2">
				<g>
					<g>
						<g>
							<g>
								<g>
									<defs>
										<polygon id="SVGID_2_" points="677.8,235.4 346,235.4 180,420.6 510.9,852.3 843.7,420.6 										"/>
									</defs>
									<clipPath id="SVGID_3_">
										<use xlink:href="#SVGID_2_"  style="overflow:visible;"/>
									</clipPath>
									<circle class="st3" cx="511.5" cy="609.2" r="243.4"/>
								</g>
							</g>
						</g>
					</g>
				</g>
			</g>
		</g>
		<polyline class="st4" points="669.2,254.7 818.6,421.5 511,820.7 205.1,421.6 354.6,254.7 669.2,254.7 		"/>
		<polygon class="st4" points="511.8,691.3 352.2,464.1 376.1,464.1 511.8,657.7 649.8,464.1 672.2,464.1 		"/>
	</g>
</g>
<g id="vipka">
	<g>
		<g>
			<g class="st1">
				<g class="st2">
					<g>
						<g>
							<g>
								<g>
									<g>
										<defs>
											<polygon id="SVGID_4_" points="677.8,235.4 346,235.4 180,420.6 510.9,852.3 843.7,420.6 											"/>
										</defs>
										<clipPath id="SVGID_5_">
											<use xlink:href="#SVGID_4_"  style="overflow:visible;"/>
										</clipPath>
										<circle class="st5" cx="511.5" cy="609.2" r="243.4"/>
									</g>
								</g>
							</g>
						</g>
					</g>
				</g>
			</g>
		</g>
	</g>
</g>
<g>
	<g>
		<g id="订单">
			<g>
				<path class="st6" d="M732.3,241.2c4.9,0,9,4.1,9,9v522.2c0,4.9-4.1,9-9,9H291.4c-4.9,0-9-4.1-9-9V250.2c0-4.9,4.1-9,9-9
					L732.3,241.2 M732.3,224.5H291.4c-14.1,0-25.6,11.5-25.6,25.6v522.2c0,14.1,11.5,25.6,25.6,25.6h441c14.1,0,25.6-11.5,25.6-25.6
					V250.2C758,236,746.5,224.5,732.3,224.5L732.3,224.5z"/>
			</g>
			<path class="st6" d="M724.5,371.6c0,4.6-3.7,8.3-8.3,8.3h-90.9c-13.7,0-24.9-11.1-24.9-24.9v-90.6c0-4.6,3.7-8.3,8.3-8.3h0.1
				c4.6,0,8.3,3.7,8.3,8.3v82.4c0,9.1,7.4,16.5,16.5,16.5h82.7C720.8,363.4,724.5,367.1,724.5,371.6L724.5,371.6z"/>
		</g>
		<path class="st7" d="M690.8,732.4H329.9c-5.6,0-10.2-4.6-10.2-10.2V295.4c0-5.6,4.6-10.2,10.2-10.2h360.9
			c5.6,0,10.2,4.6,10.2,10.2v426.7C701.1,727.7,696.5,732.4,690.8,732.4z"/>
	</g>
	<path class="st6" d="M560.6,448.5H323.4c-9.2,0-16.7-7.5-16.7-16.7v0c0-9.2,7.5-16.7,16.7-16.7h237.3c9.2,0,16.7,7.5,16.7,16.7v0
		C577.3,441,569.8,448.5,560.6,448.5z"/>
	<path class="st6" d="M699.2,549.6H323.4c-9.2,0-16.7-7.5-16.7-16.7l0,0c0-9.2,7.5-16.7,16.7-16.7h375.8c9.2,0,16.7,7.5,16.7,16.7
		l0,0C715.9,542,708.4,549.6,699.2,549.6z"/>
	<path class="st6" d="M699.2,650.6H323.4c-9.2,0-16.7-7.5-16.7-16.7l0,0c0-9.2,7.5-16.7,16.7-16.7h375.8c9.2,0,16.7,7.5,16.7,16.7
		l0,0C715.9,643.1,708.4,650.6,699.2,650.6z"/>
</g>
</svg>
