<?xml version="1.0" encoding="utf-8"?>
<!-- Generator: Adobe Illustrator 22.0.0, SVG Export Plug-In . SVG Version: 6.00 Build 0)  -->
<svg version="1.1" id="图层_1" xmlns="http://www.w3.org/2000/svg" xmlns:xlink="http://www.w3.org/1999/xlink" x="0px" y="0px"
	 viewBox="0 0 1024 1024" style="enable-background:new 0 0 1024 1024;" xml:space="preserve">
<style type="text/css">
	.st0{fill:url(#SVGID_1_);}
	.st1{opacity:0.41;fill:#FFFFFF;enable-background:new    ;}
	.st2{fill:#FFFFFF;}
</style>
<linearGradient id="SVGID_1_" gradientUnits="userSpaceOnUse" x1="900.4094" y1="1032.5969" x2="123.6031" y2="1809.4031" gradientTransform="matrix(1 0 0 -1 0 1933)">
	<stop  offset="0" style="stop-color:#6EACFE"/>
	<stop  offset="1" style="stop-color:#A6F2FF"/>
</linearGradient>
<path class="st0" d="M665.7,998H358.3C175.5,998,26,848.5,26,665.7V358.3C26,175.5,175.5,26,358.3,26h307.5
	C848.5,26,998,175.5,998,358.3v307.5C998,848.5,848.5,998,665.7,998z"/>
<g>
	<circle class="st1" cx="513.4" cy="511.6" r="221.9"/>
	<g>
		<g>
			<g>
				<g>
					<path class="st2" d="M504.9,486.6L504.9,486.6c-5.2,0-9.9-3-12.1-7.8l-51-112.5c-4-8.8,2.4-18.7,12.1-18.7l0,0
						c5.2,0,9.9,3,12.1,7.8l51,112.5C521,476.6,514.6,486.6,504.9,486.6z"/>
					<path class="st2" d="M527.5,486.6L527.5,486.6c5.2,0,10-3.1,12.1-7.8l50.9-112.4c4-8.8-2.4-18.8-12.1-18.8l0,0
						c-5.2,0-10,3.1-12.1,7.8l-50.9,112.4C511.4,476.6,517.9,486.6,527.5,486.6z"/>
					<path class="st2" d="M409.8,459.2h213.3c7.9,0,14.3,6.4,14.3,14.3l0,0c0,7.9-6.4,14.3-14.3,14.3H409.8
						c-7.9,0-14.3-6.4-14.3-14.3l0,0C395.5,465.6,401.9,459.2,409.8,459.2z"/>
					<path class="st2" d="M409.8,537.8h213.3c7.9,0,14.3,6.4,14.3,14.3l0,0c0,7.9-6.4,14.3-14.3,14.3H409.8
						c-7.9,0-14.3-6.4-14.3-14.3l0,0C395.5,544.2,401.9,537.8,409.8,537.8z"/>
					<path class="st2" d="M516.4,465.1L516.4,465.1c7.9,0,14.3,6.4,14.3,14.3v179.4c0,7.9-6.4,14.3-14.3,14.3l0,0
						c-7.9,0-14.3-6.4-14.3-14.3V479.3C502.1,471.5,508.5,465.1,516.4,465.1z"/>
				</g>
				<path class="st2" d="M716.5,662L716.5,662c4.3,0,7.7,3.4,7.7,7.7v132.5c0,4.3-3.4,7.7-7.7,7.7l0,0c-4.3,0-7.7-3.4-7.7-7.7V669.7
					C708.8,665.4,712.2,662,716.5,662z"/>
				<path class="st2" d="M650.3,728.3h132.5c4.3,0,7.7,3.4,7.7,7.7l0,0c0,4.3-3.4,7.7-7.7,7.7H650.3c-4.3,0-7.7-3.4-7.7-7.7l0,0
					C642.6,731.7,646,728.3,650.3,728.3z"/>
				<path class="st2" d="M511.9,809c-40.3,0-79.3-7.9-116-23.4c-35.5-15-67.4-36.5-94.7-63.9c-27.3-27.3-48.9-59.3-63.9-94.7
					c-15.6-36.8-23.4-75.8-23.4-116s7.9-79.3,23.4-116c15-35.5,36.5-67.4,63.9-94.8c27.3-27.4,59.3-48.9,94.7-63.9
					c36.7-15.6,75.8-23.5,116-23.5s79.3,7.9,116,23.4c35.5,15,67.4,36.5,94.7,63.9s48.9,59.3,63.9,94.7
					c15.6,36.8,23.4,75.8,23.4,116c0,35.9-6.3,70.8-18.7,104c-1.7,4.5-6.8,6.8-11.3,4.9l0,0c-4.3-1.8-6.5-6.7-4.8-11.1
					c11.6-31.2,17.5-64.1,17.5-97.8c0-154.8-126-280.8-280.8-280.8S230.9,355.9,230.9,510.8c0.1,154.9,126.2,280.9,281,280.9
					c27.1,0,54-3.9,80-11.5c4.5-1.3,9.2,1.1,10.7,5.6l0,0c1.5,4.6-1.1,9.6-5.7,11C569.3,804.9,540.7,809,511.9,809z"/>
			</g>
		</g>
	</g>
</g>
</svg>
