<?xml version="1.0" encoding="utf-8"?>
<!-- Generator: Adobe Illustrator 22.0.0, SVG Export Plug-In . SVG Version: 6.00 Build 0)  -->
<svg version="1.1" id="图层_1" xmlns="http://www.w3.org/2000/svg" xmlns:xlink="http://www.w3.org/1999/xlink" x="0px" y="0px"
	 viewBox="0 0 258 258" style="enable-background:new 0 0 258 258;" xml:space="preserve">
<style type="text/css">
	.st0{fill:#333333;}
</style>
<title>设置2</title>
<path class="st0" d="M129.2,168.4c-21.7,0-39.3-17.7-39.3-39.4c0-21.7,17.7-39.3,39.4-39.3c14.6,0,28,8.1,34.8,21.1
	c0.9,1.7,0.2,3.9-1.5,4.8c-1.7,0.9-3.9,0.2-4.8-1.5l0,0c-8.3-15.7-27.7-21.7-43.4-13.4S92.7,128.3,101,144s27.7,21.7,43.4,13.4
	c5.4-2.8,9.8-7.1,12.8-12.4c1-1.7,3.1-2.3,4.8-1.3c1.7,1,2.3,3.1,1.4,4.7l-0.1,0.1C156.4,160.8,143.3,168.4,129.2,168.4L129.2,168.4
	z"/>
<path class="st0" d="M87.7,29.8l11.5,19.8l5.3,9.2l10.4-2c9.5-1.8,19.2-1.7,28.7,0.2l10.6,2.2l5.4-9.4L171,29.9l23.4,13.4
	l-11.6,20.2l-5.3,9.3l7,8.1c6.3,7.2,11.1,15.6,14.2,24.7l3.5,10.2H213l23.1-0.1l0.1,27l-22.9,0.1h-10.8l-3.4,10.2
	c-3.1,9.2-8,17.8-14.3,25.1l-7,8.1l5.4,9.2l11.2,19.3l-23.4,13.6l-11.1-19.1l-5.4-9.4l-10.6,2.2c-9.8,2-19.8,2.1-29.6,0.1l-10.6-2.1
	l-5.4,9.3l-10.7,18.7l-23.4-13.4L75,195.9l5.3-9.3l-7.1-8.1c-6.6-7.5-11.7-16.3-14.8-25.9L55,142.4H44.1l-21.5,0.1l-0.1-27h22.1
	h10.6l3.5-10C62,96,67,87.4,73.7,80l7.3-8.1l-5.5-9.4L64.3,43.3L87.7,29.8 M88,14.4c-2.5,0-4.9,0.7-7.1,1.9L56.1,30.8
	c-6.7,3.9-9,12.6-5.1,19.3L62.5,70c-7.9,8.8-14,19.2-17.9,30.3l-22.9,0.1c-7.8,0-14.1,6.4-14.1,14.2c0,0,0,0,0,0l0.1,28.7
	c0,7.8,6.3,14.1,14.1,14.1l0,0l22.4-0.1c3.8,11.4,9.8,22,17.8,31.1l-11.2,19.5c-3.9,6.8-1.5,15.4,5.3,19.3l24.9,14.3
	c6.8,3.9,15.4,1.5,19.3-5.2l11.2-19.5c11.7,2.3,23.8,2.3,35.5-0.2l11.5,19.8c1.9,3.2,5,5.6,8.6,6.6c1.2,0.3,2.4,0.5,3.7,0.5l0,0
	c2.5,0,4.9-0.7,7.1-1.9l24.8-14.4c6.7-3.9,9-12.6,5.1-19.3L196,187.8c7.6-8.8,13.5-19.1,17.2-30.2l23.8-0.1
	c7.8,0,14.1-6.4,14.1-14.2l-0.1-28.7c0-7.8-6.4-14.1-14.2-14.1l0,0l-23.9,0.1c-3.7-10.9-9.5-20.9-17.1-29.6l12-21
	c3.9-6.8,1.5-15.4-5.2-19.3l-24.9-14.3c-6.8-3.9-15.4-1.5-19.3,5.2l-11.8,20.7c-11.4-2.3-23-2.4-34.4-0.3l-11.9-20.6
	C97.7,17.2,93,14.5,88,14.4L88,14.4z"/>
</svg>
