<?xml version="1.0" encoding="utf-8"?>
<!-- Generator: Adobe Illustrator 22.0.0, SVG Export Plug-In . SVG Version: 6.00 Build 0)  -->
<svg version="1.1" id="图层_1" xmlns="http://www.w3.org/2000/svg" xmlns:xlink="http://www.w3.org/1999/xlink" x="0px" y="0px"
	 viewBox="0 0 1024 1024" style="enable-background:new 0 0 1024 1024;" xml:space="preserve">
<style type="text/css">
	.st0{fill:url(#SVGID_1_);}
	.st1{fill:#FFFFFF;}
	.st2{opacity:0.41;fill:#FFFFFF;}
</style>
<linearGradient id="SVGID_1_" gradientUnits="userSpaceOnUse" x1="900.5344" y1="122.3594" x2="123.2156" y2="899.6781" gradientTransform="matrix(1 0 0 -1 0 1023)">
	<stop  offset="0" style="stop-color:#42DBD2"/>
	<stop  offset="1" style="stop-color:#3DEAB8"/>
</linearGradient>
<path class="st0" d="M665.8,998.3h-308C175.1,998.3,25.6,848.7,25.6,666V358c0-182.7,149.5-332.3,332.3-332.3h308
	c182.7,0,332.3,149.5,332.3,332.3v308C998.1,848.7,848.6,998.3,665.8,998.3z"/>
<g>
	<path class="st1" d="M504.5,777.6c-6.3,0-12.2-2.7-16.2-7.6L201.4,429.1c-6.5-7.8-6.6-19.1-0.3-27l142.6-176.5
		c4-5,10.1-7.9,16.5-7.9h288.6c6.6,0,13,3.2,16.9,8.4L799,402.5c5.9,7.8,5.7,18.6-0.5,26.2L521,769.7c-4,4.9-9.9,7.8-16.3,7.8
		C504.6,777.6,504.6,777.6,504.5,777.6z M360.3,234.7c-1.3,0-2.5,0.6-3.3,1.6L214.4,412.8c-1.3,1.6-1.2,3.8,0.1,5.4l286.8,340.9
		c1.1,1.3,2.5,1.5,3.3,1.5c0.7,0,2.1-0.2,3.2-1.6l277.5-341c1.2-1.5,1.3-3.7,0.1-5.2L652.2,236.4c-0.8-1.1-2.1-1.7-3.4-1.7H360.3z"
		/>
	<path class="st2" d="M513.4,704.6L727,442.1c3.5-4.3,3.6-10.4,0.3-14.8L625.1,292c-2.3-3-5.8-4.8-9.6-4.8H392.7
		c-3.6,0-7,1.6-9.3,4.5L274,427.1c-3.6,4.5-3.5,10.9,0.2,15.2l220.8,262.3C499.8,710.5,508.6,710.4,513.4,704.6z"/>
	<path class="st1" d="M503.5,580.6L384.2,438.8c-3-3.6-2.6-9,1-12c3.6-3,9-2.6,12,1L503.3,554l102.5-126c3-3.6,8.3-4.2,12-1.2
		c3.6,3,4.2,8.3,1.2,12L503.5,580.6z"/>
</g>
</svg>
