<?xml version="1.0" encoding="utf-8"?>
<!-- Generator: Adobe Illustrator 22.1.0, SVG Export Plug-In . SVG Version: 6.00 Build 0)  -->
<svg version="1.1" id="图层_1" xmlns="http://www.w3.org/2000/svg" xmlns:xlink="http://www.w3.org/1999/xlink" x="0px" y="0px"
	 viewBox="0 0 400 400" style="enable-background:new 0 0 400 400;" xml:space="preserve">
<style type="text/css">
	.st0{fill:#606266;}
</style>
<g>
	<!-- <path class="st0" d="M200,36.4c44.1,0,85.5,17.2,116.7,48.3c31.2,31.2,48.3,72.6,48.3,116.7s-17.2,85.5-48.3,116.7
		c-31.2,31.2-72.6,48.3-116.7,48.3s-85.5-17.2-116.7-48.3C52.2,286.9,35,245.5,35,201.4s17.2-85.5,48.3-116.7
		C114.5,53.6,155.9,36.4,200,36.4 M200,10.4C94.5,10.4,9,95.9,9,201.4s85.5,191,191,191s191-85.5,191-191S305.5,10.4,200,10.4
		L200,10.4z"/> -->
</g>
<path class="st0" d="M112.4,289.8L112.4,289.8c-7.8-7.8-7.8-20.5,0-28.3l148.7-148.7c7.8-7.8,20.5-7.8,28.3,0l0,0
	c7.8,7.8,7.8,20.5,0,28.3L140.7,289.8C132.9,297.6,120.2,297.6,112.4,289.8z"/>
<path class="st0" d="M112.4,112.8L112.4,112.8c7.8-7.8,20.5-7.8,28.3,0l148.7,148.7c7.8,7.8,7.8,20.5,0,28.3l0,0
	c-7.8,7.8-20.5,7.8-28.3,0L112.4,141.1C104.6,133.3,104.6,120.6,112.4,112.8z"/>
</svg>
